<svg xmlns="http://www.w3.org/2000/svg" viewBox="0 0 176 222" width="176" height="222" role="img">
<g transform="rotate(-1.2 88.0 108.0)">
<rect x="2" y="6" width="172" height="212" fill="#fbfaf5" stroke="#1f2a44" stroke-width="1.2"/>
<svg x="8" y="12" width="160" height="200" viewBox="0 0 480 600" preserveAspectRatio="xMidYMid slice">
<rect width="480" height="600" fill="#fbfaf5"/>
<g transform="translate(0.000000,600.000000) scale(0.100000,-0.100000)"
fill="#1f2a44" stroke="none">
<path d="M2610 5520 c0 -5 9 -10 20 -10 11 0 20 5 20 10 0 6 -9 10 -20 10 -11
0 -20 -4 -20 -10z M2090 5465 c-13 -13 -31 -27 -42 -31 -43 -13 -14 -25 58
-22 86 3 88 4 73 47 -14 40 -55 43 -89 6z M3237 5423 c-13 -12 -7 -23 13 -23
11 0 20 7 20 15 0 15 -21 21 -33 8z M1980 5410 c0 -5 7 -10 15 -10 8 0 15 5
15 10 0 6 -7 10 -15 10 -8 0 -15 -4 -15 -10z M2620 5397 c0 -18 26 -40 80 -67
24 -13 56 -31 70 -40 34 -25 114 -34 106 -13 -3 8 -9 26 -12 39 -4 14 -13 24
-24 24 -10 0 -25 6 -32 14 -8 7 -32 19 -53 26 -22 7 -50 16 -63 21 -34 13 -72
11 -72 -4z M1670 5385 c0 -8 5 -15 10 -15 6 0 10 7 10 15 0 8 -4 15 -10 15 -5
0 -10 -7 -10 -15z M2881 5386 c-17 -21 -7 -46 19 -46 11 0 20 -4 20 -10 0 -5
6 -10 14 -10 8 0 21 -7 29 -15 11 -11 23 -12 50 -4 64 18 77 69 17 69 -16 0
-30 4 -30 8 0 5 -15 9 -32 9 -18 0 -42 3 -54 7 -13 5 -25 2 -33 -8z M3305
5379 c-4 -6 2 -20 13 -32 10 -12 28 -33 38 -45 11 -13 27 -33 37 -44 9 -12 17
-25 17 -29 0 -4 10 -9 22 -11 13 -2 24 -11 26 -21 2 -11 21 -38 43 -60 21 -23
39 -46 39 -50 0 -5 10 -7 23 -5 18 2 21 -1 19 -19 -3 -23 13 -33 20 -12 2 6
12 1 22 -10 11 -12 14 -21 8 -21 -7 0 -12 -5 -12 -11 0 -6 9 -9 20 -6 11 3 18
1 15 -3 -9 -15 7 -40 25 -40 10 0 31 -18 47 -40 15 -22 34 -40 40 -40 16 0 43
-52 43 -82 0 -13 9 -41 20 -63 11 -22 20 -51 20 -66 l0 -27 -31 29 c-37 34
-43 35 -69 9 -26 -26 -25 -33 5 -61 28 -27 32 -44 10 -53 -8 -3 -21 4 -29 16
-8 12 -25 22 -38 24 -34 4 -34 4 -20 13 10 6 0 21 -39 60 -47 47 -53 50 -64
34 -12 -17 -15 -17 -52 2 -21 11 -43 19 -49 19 -6 -1 -9 7 -7 17 6 23 -12 26
-21 3 -6 -17 -45 -11 -58 9 -4 7 -14 2 -25 -12 -21 -26 -63 -22 -63 5 0 8 -4
14 -10 14 -5 0 -10 -7 -10 -15 0 -8 5 -15 10 -15 6 0 10 -5 10 -11 0 -6 -11
-8 -29 -4 -21 4 -30 2 -34 -9 -7 -17 -57 -22 -57 -6 0 16 -27 12 -34 -5 -9
-25 -30 -17 -69 26 -34 36 -39 39 -53 25 -8 -9 -18 -16 -22 -17 -46 -5 -61 -5
-81 3 -19 7 -22 11 -12 21 10 9 15 8 27 -8 14 -19 14 -19 30 3 8 12 24 22 34
22 10 0 20 5 22 11 5 14 83 -23 92 -43 5 -10 7 -10 12 0 3 6 21 12 39 12 18 0
35 -6 38 -12 3 -9 11 -5 24 11 15 19 31 25 64 27 58 3 53 1 77 23 28 24 28 25
-10 61 -30 29 -31 31 -12 44 10 8 21 10 22 5 6 -15 22 -10 22 6 0 8 -5 15 -11
15 -7 0 -5 9 5 24 16 26 12 56 -8 56 -13 0 -57 -29 -68 -44 -12 -18 -72 8 -86
37 -22 45 -54 54 -85 23 -24 -24 -31 -25 -104 -22 -43 2 -93 -2 -111 -8 -23
-7 -35 -7 -40 0 -4 6 -25 11 -47 11 -22 1 -60 3 -85 5 -25 2 -60 -2 -79 -10
-28 -11 -35 -11 -42 0 -7 11 -11 11 -17 0 -10 -15 -79 -3 -139 24 -17 8 -36
14 -43 14 -6 0 -18 6 -25 14 -12 12 -2 13 71 10 47 -2 89 -6 94 -9 13 -8 60
24 60 41 0 10 -15 13 -59 12 -34 -1 -65 3 -74 10 -8 7 -22 10 -31 6 -9 -3 -31
0 -49 8 -51 24 -182 17 -230 -12 -21 -13 -52 -23 -68 -22 -28 1 -29 -1 -24
-36 3 -20 6 -45 6 -54 0 -10 4 -18 10 -18 5 0 9 4 9 10 0 21 98 -43 116 -76
10 -19 24 -34 31 -34 7 0 28 -16 47 -35 20 -19 42 -35 50 -35 7 0 17 -10 20
-22 15 -56 100 -69 113 -18 7 27 23 15 23 -17 0 -18 4 -24 15 -19 8 3 29 0 46
-6 24 -8 40 -8 67 2 28 10 36 10 42 0 4 -7 15 -10 24 -7 8 3 19 0 23 -8 12
-21 65 -45 101 -45 17 0 32 -4 32 -9 0 -10 101 -23 199 -26 46 -1 67 -6 76
-18 15 -21 31 -22 39 -1 4 11 14 14 29 11 12 -3 30 0 40 8 10 7 27 11 37 8 11
-3 20 -1 20 5 0 16 41 22 47 6 6 -17 33 -19 33 -1 1 7 6 5 14 -6 8 -10 12 -26
9 -36 -3 -11 2 -21 11 -24 9 -4 16 -13 16 -22 0 -20 -37 -19 -48 1 -8 14 -15
11 -48 -25 -22 -22 -47 -41 -56 -41 -9 0 -20 -5 -24 -11 -3 -6 -19 -9 -35 -5
-22 4 -35 0 -54 -20 -22 -22 -28 -24 -42 -13 -9 8 -11 15 -4 17 16 5 13 22 -4
22 -8 0 -15 -4 -15 -10 0 -15 -58 -12 -63 3 -3 9 -7 9 -20 -1 -11 -10 -31 -12
-70 -7 -38 5 -62 3 -78 -6 -13 -7 -30 -12 -38 -10 -62 12 -86 -50 -31 -81 17
-10 37 -15 46 -11 8 3 36 -6 62 -20 49 -26 80 -29 280 -28 45 0 82 -4 82 -8 0
-5 11 -12 25 -15 14 -4 25 -11 25 -16 0 -6 12 -10 28 -10 15 0 35 -8 44 -17
26 -28 46 -43 57 -43 6 0 16 -9 23 -20 14 -23 39 -26 67 -8 32 19 94 -50 95
-105 1 -23 5 -48 9 -54 5 -7 6 -16 4 -20 -3 -5 -1 -33 4 -63 5 -30 11 -66 13
-80 2 -14 11 -50 19 -80 9 -30 13 -58 10 -63 -2 -4 0 -13 5 -20 8 -10 17 -52
27 -122 0 -5 5 -22 9 -36 8 -29 12 -68 15 -141 1 -48 1 -48 36 -48 32 0 35 2
35 29 0 18 -8 35 -19 43 -23 16 -22 64 2 60 16 -3 23 17 31 98 3 25 12 63 19
85 15 43 12 42 99 29 l47 -6 15 53 c19 61 20 112 6 223 -5 45 -17 151 -26 236
-29 288 -35 322 -64 385 -15 33 -32 78 -38 100 -19 75 -55 160 -82 195 -15 19
-32 45 -39 58 -17 32 -133 153 -221 230 -41 36 -82 77 -91 91 -19 31 -122 111
-143 111 -8 0 -18 -5 -21 -11z m-855 -385 c19 -1 36 -3 38 -3 2 -1 -3 -8 -12
-16 -22 -22 -54 -18 -84 11 l-27 26 25 -8 c14 -4 41 -9 60 -10z m185 -13 c6
-19 27 -23 118 -23 20 0 37 -4 37 -9 0 -5 -4 -9 -10 -9 -5 0 -10 -7 -10 -15 0
-8 5 -15 10 -15 6 0 10 7 10 15 0 25 48 23 68 -3 11 -15 13 -14 27 5 20 29
200 26 222 -3 13 -18 15 -18 24 -1 16 28 51 20 88 -19 21 -24 36 -33 40 -26
11 18 56 20 56 2 0 -10 -10 -15 -30 -15 -17 -1 -37 -5 -45 -10 -8 -5 -23 -8
-32 -7 -10 2 -18 -2 -18 -8 0 -7 -8 -9 -22 -4 -13 4 -32 8 -44 9 -31 2 -43 13
-37 35 6 23 -12 27 -21 5 -6 -17 -56 -21 -56 -5 0 17 -25 11 -38 -10 -7 -11
-18 -17 -27 -14 -8 4 -15 1 -15 -5 0 -6 -8 -11 -17 -11 -17 1 -17 1 0 11 9 5
17 18 17 28 0 25 -40 34 -62 15 -9 -9 -22 -13 -29 -9 -6 5 -32 9 -56 10 -33 1
-50 8 -68 27 -19 20 -32 25 -64 23 -39 -2 -41 -1 -41 26 0 33 16 39 25 10z
m1233 -486 c40 -46 20 -63 -25 -21 -14 13 -22 29 -19 35 11 17 20 14 44 -14z
m-798 -85 c0 -5 -2 -10 -4 -10 -2 0 -12 -3 -22 -7 -16 -6 -17 -5 -4 10 17 19
30 22 30 7z m890 -296 c0 -8 -4 -12 -10 -9 -5 3 -10 10 -10 16 0 5 5 9 10 9 6
0 10 -7 10 -16z m-4 -110 c2 -74 1 -75 -17 -55 -20 22 -26 71 -8 71 5 0 9 8 8
18 -3 31 1 55 8 48 4 -3 8 -41 9 -82z m-26 -189 c0 -8 -4 -15 -9 -15 -13 0
-22 16 -14 24 11 11 23 6 23 -9z M2940 4930 c0 -5 5 -10 10 -10 6 0 10 5 10
10 0 6 -4 10 -10 10 -5 0 -10 -4 -10 -10z M3150 4880 c0 -5 7 -10 15 -10 8 0
15 5 15 10 0 6 -7 10 -15 10 -8 0 -15 -4 -15 -10z M2060 5329 c-45 -24 -44
-42 1 -53 46 -11 69 -3 69 24 0 18 -22 52 -32 49 -2 -1 -19 -10 -38 -20z
M2201 5290 c-26 -19 -22 -60 5 -60 8 0 14 -5 14 -11 0 -7 11 -8 29 -4 17 3 32
2 36 -4 3 -6 21 -9 39 -6 19 2 54 -2 79 -10 25 -7 55 -11 66 -8 12 3 27 1 34
-5 7 -6 23 -9 35 -5 30 7 88 -5 106 -22 12 -12 20 -13 41 -3 32 14 29 42 -5
46 -14 2 -33 11 -43 20 -12 10 -44 17 -100 20 -45 2 -88 9 -95 15 -7 5 -15 7
-19 4 -3 -4 -15 -1 -27 5 -11 7 -34 13 -50 14 -16 1 -31 6 -35 11 -12 20 -86
22 -110 3z M1779 5286 c-2 -2 -44 -11 -93 -20 -83 -14 -136 -41 -136 -67 0
-17 56 -16 78 2 27 21 110 24 147 6 63 -32 128 -24 139 16 7 28 -18 49 -62 52
-20 1 -44 5 -53 9 -8 4 -17 5 -20 2z M3118 5283 c-20 -5 -25 -33 -6 -33 7 0
31 -20 54 -45 38 -40 46 -44 76 -39 l33 7 -22 -22 c-28 -26 -28 -34 -6 -57 13
-13 14 -19 5 -22 -14 -4 -16 -32 -2 -32 6 0 10 7 10 15 0 8 11 17 25 21 14 3
25 10 25 15 0 5 11 15 25 21 37 17 31 59 -9 69 -16 5 -37 17 -48 28 -16 19
-48 25 -105 24 -6 0 -9 6 -6 13 4 11 -19 46 -29 43 -2 -1 -11 -3 -20 -6z
M1425 5240 c-60 -38 -72 -60 -32 -60 21 0 87 56 87 73 0 12 -24 6 -55 -13z
M2992 5228 c-18 -18 -15 -25 19 -37 64 -22 116 -8 89 24 -7 9 -23 12 -46 8
-22 -4 -34 -2 -34 6 0 14 -13 14 -28 -1z M2130 5220 c0 -5 7 -10 15 -10 8 0
15 5 15 10 0 6 -7 10 -15 10 -8 0 -15 -4 -15 -10z M1947 5204 c-13 -13 -7 -24
14 -24 11 0 19 5 17 12 -5 14 -22 21 -31 12z M2004 5166 c-4 -16 -11 -23 -20
-19 -8 3 -14 0 -14 -6 0 -6 -11 -11 -25 -11 -32 0 -45 -28 -21 -45 31 -24 101
-10 135 26 33 34 39 57 19 63 -56 18 -68 16 -74 -8z M2090 5180 c0 -5 7 -10
15 -10 8 0 15 5 15 10 0 6 -7 10 -15 10 -8 0 -15 -4 -15 -10z M2170 5180 c0
-5 7 -10 15 -10 8 0 15 5 15 10 0 6 -7 10 -15 10 -8 0 -15 -4 -15 -10z M2260
5180 c0 -5 7 -10 15 -10 8 0 15 5 15 10 0 6 -7 10 -15 10 -8 0 -15 -4 -15 -10z
M2340 5180 c0 -5 7 -10 15 -10 8 0 15 5 15 10 0 6 -7 10 -15 10 -8 0 -15 -4
-15 -10z M2750 5170 c0 -13 9 -22 25 -26 14 -3 25 -10 25 -15 0 -5 9 -9 19 -9
11 0 26 -6 33 -13 18 -18 93 -28 107 -14 19 19 12 26 -46 43 -32 9 -60 20 -63
24 -23 32 -100 40 -100 10z M3110 5175 c0 -15 26 -32 36 -23 2 3 2 13 -2 22
-8 20 -34 21 -34 1z M2130 5140 c0 -5 7 -10 15 -10 8 0 15 5 15 10 0 6 -7 10
-15 10 -8 0 -15 -4 -15 -10z M3400 5125 c-7 -8 -18 -15 -25 -15 -7 0 -15 -10
-19 -22 -14 -56 124 -112 156 -64 15 21 9 38 -12 33 -10 -3 -27 1 -37 9 -11 8
-13 13 -5 14 14 0 17 30 2 30 -5 0 -10 -5 -10 -11 0 -8 -4 -8 -14 1 -8 6 -12
18 -9 26 7 19 -11 18 -27 -1z M1270 5110 c-8 -5 -11 -12 -8 -16 10 -9 38 3 38
16 0 12 -10 13 -30 0z M1832 5110 c-46 -11 -51 -19 -23 -41 41 -33 94 -8 77
37 -6 15 -6 15 -54 4z M3041 5106 c-10 -11 -7 -19 14 -40 l25 -25 25 25 c31
31 32 44 3 43 -13 -1 -30 1 -39 5 -9 4 -21 1 -28 -8z M3200 5090 c0 -5 5 -10
10 -10 6 0 10 5 10 10 0 6 -4 10 -10 10 -5 0 -10 -4 -10 -10z M1405 5080 c-4
-6 0 -22 9 -35 12 -18 13 -25 3 -29 -9 -5 -9 -7 1 -12 10 -5 10 -9 1 -20 -10
-12 -16 -11 -44 6 -30 18 -36 19 -77 6 -54 -16 -118 -64 -118 -88 0 -25 26
-22 45 5 10 14 18 18 23 11 4 -6 16 -11 27 -10 11 0 20 -3 20 -9 0 -5 -4 -9
-8 -7 -36 12 -67 -68 -32 -82 22 -8 18 -24 -7 -32 -36 -10 -55 -32 -62 -69 -4
-18 -13 -39 -21 -45 -9 -7 -13 -21 -10 -30 13 -40 -11 -69 -65 -76 -55 -7 -59
-14 -35 -71 8 -19 15 -44 15 -54 0 -10 12 -29 26 -42 14 -14 29 -39 33 -57 9
-45 22 -47 59 -8 39 39 39 37 2 78 -17 18 -30 37 -30 42 0 14 33 23 38 10 5
-17 29 -15 36 3 12 32 35 17 25 -17 -6 -24 -5 -36 6 -48 8 -9 15 -24 15 -33 0
-9 5 -17 11 -17 5 0 7 -5 4 -10 -4 -6 -15 -8 -25 -5 -12 4 -28 -4 -46 -22 -16
-16 -22 -29 -16 -31 15 -5 16 -62 1 -62 -6 0 -9 -9 -6 -19 7 -27 -10 -51 -22
-31 -12 18 -22 9 -28 -27 -9 -54 -4 -81 20 -105 22 -22 24 -32 22 -94 -2 -54
2 -76 18 -103 20 -33 20 -34 1 -48 -16 -12 -17 -15 -4 -23 12 -8 13 -14 1 -46
-10 -28 -11 -39 -2 -42 17 -6 13 -47 -8 -74 -13 -16 -18 -33 -14 -47 3 -12 0
-40 -7 -62 -11 -34 -11 -44 4 -77 l18 -39 -30 -29 c-33 -34 -53 -146 -32 -185
14 -24 6 -49 -14 -49 -20 0 -29 -35 -16 -60 11 -20 54 -27 76 -12 24 16 36 55
30 96 -4 25 -1 68 8 104 9 39 11 74 6 97 -4 20 -4 38 1 41 5 3 9 24 9 48 0 23
6 62 14 87 15 47 23 88 56 274 12 66 27 149 35 185 8 36 17 94 20 130 10 98
12 113 24 142 14 36 3 128 -15 128 -15 0 -16 3 -18 70 -1 25 -5 51 -9 58 -10
16 1 52 16 53 7 1 22 0 34 -1 25 -2 113 79 113 104 0 7 12 35 26 61 l25 48
-20 28 c-12 16 -21 31 -21 34 0 4 -7 14 -16 22 -8 9 -13 24 -11 34 3 10 -1 37
-9 59 -8 24 -12 56 -8 79 3 21 2 41 -2 43 -22 13 -63 17 -69 8z m51 -283 c20
-22 20 -26 7 -40 -21 -21 -55 10 -58 52 -2 35 15 31 51 -12z M2050 5055 c0 -8
5 -15 10 -15 6 0 10 7 10 15 0 8 -4 15 -10 15 -5 0 -10 -7 -10 -15z M1880
5050 c0 -5 5 -10 10 -10 6 0 10 5 10 10 0 6 -4 10 -10 10 -5 0 -10 -4 -10 -10z
M1960 5050 c0 -5 5 -10 10 -10 6 0 10 5 10 10 0 6 -4 10 -10 10 -5 0 -10 -4
-10 -10z M2980 5050 c0 -5 7 -10 15 -10 8 0 15 5 15 10 0 6 -7 10 -15 10 -8 0
-15 -4 -15 -10z M3320 5050 c0 -5 7 -10 15 -10 8 0 15 5 15 10 0 6 -7 10 -15
10 -8 0 -15 -4 -15 -10z M1145 5029 c-11 -35 13 -48 36 -20 25 31 24 41 -5 41
-16 0 -27 -7 -31 -21z M1610 5032 c0 -23 29 -47 42 -34 11 11 10 16 -6 28 -22
16 -36 18 -36 6z M1670 5004 c-9 -10 -7 -19 7 -39 35 -49 130 -19 96 31 -13
18 -90 24 -103 8z M1836 5004 c-10 -27 -7 -34 21 -45 34 -13 47 0 34 34 -12
30 -45 37 -55 11z M3280 5010 c0 -5 7 -10 15 -10 8 0 15 5 15 10 0 6 -7 10
-15 10 -8 0 -15 -4 -15 -10z M3530 5010 c0 -5 7 -10 15 -10 8 0 15 5 15 10 0
6 -7 10 -15 10 -8 0 -15 -4 -15 -10z M3410 4965 c0 -8 5 -15 10 -15 6 0 10 7
10 15 0 8 -4 15 -10 15 -5 0 -10 -7 -10 -15z M3490 4970 c0 -5 7 -10 15 -10 8
0 15 5 15 10 0 6 -7 10 -15 10 -8 0 -15 -4 -15 -10z M3563 4954 c-13 -14 -23
-29 -23 -34 0 -14 18 -12 22 2 3 7 16 3 39 -13 50 -35 64 -59 34 -59 -8 0 -15
-4 -15 -10 0 -14 28 -12 32 2 3 9 10 8 23 -5 9 -10 24 -16 32 -13 8 3 17 6 19
6 2 0 4 7 4 15 0 8 -4 15 -9 15 -5 0 -12 11 -15 25 -4 17 -22 33 -56 50 -28
14 -50 30 -50 35 0 16 -13 10 -37 -16z M3433 4917 c-13 -13 -23 -27 -23 -31 0
-11 48 -56 59 -56 12 0 22 30 15 42 -4 6 -8 20 -9 32 -4 34 -5 36 -12 35 -5 0
-18 -10 -30 -22z M2074 4916 c-8 -21 3 -36 27 -36 15 0 20 6 17 22 -4 27 -35
37 -44 14z M1872 4898 c-21 -21 -13 -38 18 -38 25 0 30 4 30 25 0 27 -26 35
-48 13z M3580 4885 c0 -8 5 -15 10 -15 6 0 10 7 10 15 0 8 -4 15 -10 15 -5 0
-10 -7 -10 -15z M3490 4880 c0 -5 7 -10 15 -10 8 0 15 5 15 10 0 6 -7 10 -15
10 -8 0 -15 -4 -15 -10z M3530 4840 c0 -5 7 -10 15 -10 8 0 15 5 15 10 0 6 -7
10 -15 10 -8 0 -15 -4 -15 -10z M3410 4795 c0 -8 5 -15 10 -15 6 0 10 7 10 15
0 8 -4 15 -10 15 -5 0 -10 -7 -10 -15z M3490 4800 c0 -5 7 -10 15 -10 8 0 15
5 15 10 0 6 -7 10 -15 10 -8 0 -15 -4 -15 -10z M3580 4795 c0 -8 5 -15 10 -15
6 0 10 7 10 15 0 8 -4 15 -10 15 -5 0 -10 -7 -10 -15z M3660 4800 c0 -5 7 -10
15 -10 8 0 15 5 15 10 0 6 -7 10 -15 10 -8 0 -15 -4 -15 -10z M3750 4790 c0
-5 5 -10 10 -10 6 0 10 5 10 10 0 6 -4 10 -10 10 -5 0 -10 -4 -10 -10z M3540
4755 c0 -8 5 -15 10 -15 6 0 10 7 10 15 0 8 -4 15 -10 15 -5 0 -10 -7 -10 -15z
M3620 4755 c0 -8 5 -15 10 -15 6 0 10 7 10 15 0 8 -4 15 -10 15 -5 0 -10 -7
-10 -15z M3710 4755 c0 -8 5 -15 10 -15 6 0 10 7 10 15 0 8 -4 15 -10 15 -5 0
-10 -7 -10 -15z M3790 4750 c0 -5 5 -10 10 -10 6 0 10 5 10 10 0 6 -4 10 -10
10 -5 0 -10 -4 -10 -10z M3750 4715 c0 -8 5 -15 10 -15 6 0 10 7 10 15 0 8 -4
15 -10 15 -5 0 -10 -7 -10 -15z M1890 4706 c0 -42 94 -82 159 -68 58 13 45 27
-46 55 -101 31 -113 32 -113 13z M3660 4710 c0 -5 7 -10 15 -10 8 0 15 5 15
10 0 6 -7 10 -15 10 -8 0 -15 -4 -15 -10z M1110 4685 c0 -8 5 -15 10 -15 6 0
10 7 10 15 0 8 -4 15 -10 15 -5 0 -10 -7 -10 -15z M3700 4670 c0 -5 7 -10 15
-10 8 0 15 5 15 10 0 6 -7 10 -15 10 -8 0 -15 -4 -15 -10z M1086 4624 c-10
-26 -7 -44 8 -44 17 0 28 24 20 45 -8 19 -20 19 -28 -1z M3240 4625 c0 -8 5
-15 10 -15 6 0 10 7 10 15 0 8 -4 15 -10 15 -5 0 -10 -7 -10 -15z M3320 4630
c0 -5 7 -10 15 -10 8 0 15 5 15 10 0 6 -7 10 -15 10 -8 0 -15 -4 -15 -10z
M3088 4593 c-30 -5 -38 -27 -12 -37 20 -8 54 11 54 29 0 8 -3 14 -7 14 -5 -1
-20 -4 -35 -6z M3200 4585 c0 -8 5 -15 10 -15 6 0 10 7 10 15 0 8 -4 15 -10
15 -5 0 -10 -7 -10 -15z M3280 4585 c0 -8 5 -15 10 -15 6 0 10 7 10 15 0 8 -4
15 -10 15 -5 0 -10 -7 -10 -15z M3240 4545 c0 -8 5 -15 10 -15 6 0 10 7 10 15
0 8 -4 15 -10 15 -5 0 -10 -7 -10 -15z M3150 4540 c0 -5 7 -10 15 -10 8 0 15
5 15 10 0 6 -7 10 -15 10 -8 0 -15 -4 -15 -10z M1949 4481 c-81 -31 -157 -74
-201 -113 -29 -26 -49 -36 -63 -32 -49 12 -172 -135 -139 -166 27 -25 50 -18
98 27 44 40 105 71 130 64 5 -1 16 4 25 12 26 22 78 39 99 33 11 -4 23 -2 27
4 4 6 25 10 48 9 23 -1 60 6 82 14 22 8 42 11 45 6 7 -11 63 4 67 18 2 5 -8
18 -22 27 -28 19 -33 36 -9 36 9 0 18 -9 21 -20 11 -44 73 -18 73 31 0 37 -23
53 -66 46 -23 -4 -47 -1 -65 8 -36 19 -92 18 -150 -4z M1006 4483 c-3 -4 -4
-50 0 -102 5 -77 3 -104 -10 -135 -41 -99 -40 -198 5 -403 5 -23 9 -60 9 -83
0 -57 61 -180 90 -180 11 1 80 69 80 79 0 16 -26 13 -44 -4 -19 -19 -47 4 -39
34 3 10 0 22 -6 26 -7 4 1 19 24 42 35 35 44 53 26 53 -6 0 -8 31 -6 70 4 64
2 72 -21 95 -26 26 -44 32 -44 15 0 -5 5 -10 10 -10 15 0 12 -16 -5 -34 -8 -8
-12 -21 -9 -29 3 -8 1 -18 -5 -21 -15 -10 -25 35 -10 45 10 7 11 11 2 17 -7 4
-11 38 -11 92 1 47 -2 93 -6 102 -6 12 3 27 29 52 35 35 36 37 25 72 -10 30
-10 38 1 45 11 8 11 11 -3 20 -10 5 -18 19 -18 29 0 12 -7 20 -16 20 -12 0
-15 9 -13 38 3 60 -9 81 -35 55z m78 -735 c-9 -14 -24 2 -24 25 1 21 1 21 15
3 8 -10 12 -23 9 -28z M1120 4290 c0 -5 5 -10 10 -10 6 0 10 5 10 10 0 6 -4
10 -10 10 -5 0 -10 -4 -10 -10z M1160 4245 c0 -8 5 -15 10 -15 6 0 10 7 10 15
0 8 -4 15 -10 15 -5 0 -10 -7 -10 -15z M1120 4205 c0 -8 5 -15 10 -15 6 0 10
7 10 15 0 8 -4 15 -10 15 -5 0 -10 -7 -10 -15z M1070 4160 c0 -5 7 -10 15 -10
8 0 15 5 15 10 0 6 -7 10 -15 10 -8 0 -15 -4 -15 -10z M1110 4120 c0 -5 7 -10
15 -10 8 0 15 5 15 10 0 6 -7 10 -15 10 -8 0 -15 -4 -15 -10z M1970 4120 c0
-5 5 -10 10 -10 6 0 10 5 10 10 0 6 -4 10 -10 10 -5 0 -10 -4 -10 -10z M2980
4120 c0 -5 7 -10 15 -10 8 0 15 5 15 10 0 6 -7 10 -15 10 -8 0 -15 -4 -15 -10z
M1880 4110 c0 -5 5 -10 10 -10 6 0 10 5 10 10 0 6 -4 10 -10 10 -5 0 -10 -4
-10 -10z M2050 4110 c0 -5 5 -10 10 -10 6 0 10 5 10 10 0 6 -4 10 -10 10 -5 0
-10 -4 -10 -10z M2900 4110 c0 -5 5 -10 10 -10 6 0 10 5 10 10 0 6 -4 10 -10
10 -5 0 -10 -4 -10 -10z M3070 4110 c0 -5 5 -10 10 -10 6 0 10 5 10 10 0 6 -4
10 -10 10 -5 0 -10 -4 -10 -10z M2279 4095 c-12 -12 -21 -14 -42 -6 -49 19
-66 2 -45 -44 16 -35 -19 -72 -48 -50 -18 13 -18 14 -1 20 23 9 22 29 -1 23
-10 -3 -27 1 -37 8 -10 8 -29 14 -42 14 -13 0 -26 6 -29 14 -3 8 -21 13 -47
13 -23 0 -61 3 -84 6 -30 4 -45 1 -54 -9 -6 -8 -23 -14 -38 -14 -15 0 -36 -7
-47 -15 -12 -8 -24 -11 -28 -8 -3 4 -16 -3 -29 -14 -12 -11 -31 -24 -43 -27
-38 -12 -64 -45 -64 -82 0 -27 4 -35 14 -31 8 3 31 9 51 13 20 3 47 19 63 35
15 16 35 29 44 29 10 0 18 5 18 10 0 6 7 10 15 10 20 0 19 -17 -2 -29 -12 -7
-14 -13 -7 -18 6 -5 16 -18 23 -30 6 -13 18 -23 26 -23 7 0 21 -7 30 -16 9 -9
19 -13 23 -10 3 4 0 11 -8 16 -13 8 -12 11 5 24 11 8 22 11 25 7 8 -11 111 -7
106 4 -20 47 -33 65 -46 65 -13 0 -13 1 0 10 9 6 17 5 22 -3 5 -8 12 -6 26 6
16 15 21 15 38 3 19 -14 18 -15 -5 -39 -23 -26 -22 -47 5 -47 44 0 -51 -72
-101 -77 -16 -1 -56 -4 -87 -7 -105 -8 -125 -26 -61 -52 89 -38 306 33 359
117 12 20 43 54 69 74 25 21 48 48 51 61 3 13 12 28 20 35 8 6 14 20 14 30 0
23 -30 25 -51 4z M3028 4087 c-13 -5 -35 -6 -50 -3 -23 4 -36 -3 -78 -44 -46
-45 -61 -70 -42 -70 5 0 18 -9 30 -20 l22 -21 32 33 c18 18 26 34 20 36 -22 7
-12 21 13 18 28 -3 65 -37 65 -60 0 -18 22 -25 80 -22 25 1 60 -1 79 -5 22 -5
49 -3 75 6 37 13 44 13 79 -5 39 -21 69 -14 82 19 6 16 -12 41 -31 41 -8 0
-27 12 -43 28 -54 50 -71 62 -89 62 -10 0 -22 3 -26 7 -10 11 -190 11 -218 0z
m236 -91 c17 -25 -11 -37 -64 -27 -3 1 2 6 10 12 11 8 12 12 2 16 -19 7 -6 20
19 18 13 -1 28 -9 33 -19z M2090 4075 c0 -8 5 -15 10 -15 6 0 10 7 10 15 0 8
-4 15 -10 15 -5 0 -10 -7 -10 -15z M1120 4035 c0 -8 5 -15 10 -15 6 0 10 7 10
15 0 8 -4 15 -10 15 -5 0 -10 -7 -10 -15z M1160 3995 c0 -8 5 -15 10 -15 6 0
10 7 10 15 0 8 -4 15 -10 15 -5 0 -10 -7 -10 -15z M2980 3950 c0 -5 7 -10 15
-10 8 0 15 5 15 10 0 6 -7 10 -15 10 -8 0 -15 -4 -15 -10z M1160 3905 c0 -8 5
-15 10 -15 6 0 10 7 10 15 0 8 -4 15 -10 15 -5 0 -10 -7 -10 -15z M2940 3910
c0 -5 5 -10 10 -10 6 0 10 5 10 10 0 6 -4 10 -10 10 -5 0 -10 -4 -10 -10z
M1160 3825 c0 -8 5 -15 10 -15 6 0 10 7 10 15 0 8 -4 15 -10 15 -5 0 -10 -7
-10 -15z M1160 3735 c0 -8 5 -15 10 -15 6 0 10 7 10 15 0 8 -4 15 -10 15 -5 0
-10 -7 -10 -15z M1120 3695 c0 -8 5 -15 10 -15 6 0 10 7 10 15 0 8 -4 15 -10
15 -5 0 -10 -7 -10 -15z M967 3563 c-12 -12 -7 -53 6 -53 24 0 51 26 44 44 -6
16 -38 22 -50 9z M3986 3488 c-18 -88 17 -251 38 -175 8 29 8 171 0 191 -10
27 -31 18 -38 -16z M2062 3488 c-30 -30 -8 -64 34 -54 36 9 27 66 -11 66 -6 0
-16 -5 -23 -12z M950 3435 c0 -19 5 -35 10 -35 6 0 10 16 10 35 0 19 -4 35
-10 35 -5 0 -10 -16 -10 -35z M2677 3452 c-39 -43 3 -77 63 -52 16 6 34 9 40
5 6 -4 17 -2 25 5 10 9 20 7 39 -5 14 -10 33 -15 41 -11 22 8 19 36 -4 36 -10
0 -38 9 -62 20 -57 25 -120 26 -142 2z M2280 3453 c-79 -14 -101 -24 -98 -46
5 -36 74 -49 97 -18 18 24 18 24 70 6 28 -9 51 -21 51 -26 0 -5 11 -9 25 -9
33 0 33 29 -1 69 -26 32 -64 38 -144 24z M1020 3395 c-5 -14 -13 -37 -16 -50
-3 -14 -12 -25 -20 -25 -17 0 -17 -42 -1 -119 18 -83 37 -78 37 8 0 41 6 87
15 108 17 41 20 103 5 103 -6 0 -15 -11 -20 -25z M1906 3216 c-27 -36 -26 -66
2 -66 24 0 72 51 72 77 0 37 -42 30 -74 -11z M2218 3243 c-20 -5 -23 -18 -7
-28 16 -10 61 4 56 18 -4 13 -23 17 -49 10z M3080 3198 c0 -15 23 -68 30 -68
4 0 13 6 19 14 12 14 5 46 -9 46 -5 0 -15 3 -24 6 -9 3 -16 4 -16 2z M3367
3149 c-3 -12 -1 -29 5 -39 9 -14 8 -24 -4 -42 -22 -33 -11 -93 17 -93 18 0 20
8 22 79 2 75 -7 116 -26 116 -5 0 -11 -10 -14 -21z M3854 3155 c-9 -23 4 -47
23 -43 28 5 30 58 3 58 -11 0 -23 -7 -26 -15z M1722 3138 c-17 -17 -17 -181 0
-176 7 3 15 19 19 36 4 18 11 38 16 44 13 16 2 100 -12 105 -6 2 -16 -2 -23
-9z M2090 3048 c-19 -5 -50 -21 -68 -34 -30 -23 -52 -30 -108 -33 -26 -1 -39
-57 -18 -78 7 -7 14 -16 16 -20 10 -24 91 -83 113 -83 27 0 30 9 26 68 -2 30
-1 32 22 27 21 -6 26 -3 29 17 2 13 11 24 23 26 11 2 29 12 41 23 17 16 24 17
52 7 38 -15 65 -3 70 30 4 26 -31 46 -69 38 -15 -3 -29 -1 -31 3 -5 15 -61 20
-98 9z M2841 3046 c-8 -9 -25 -12 -55 -9 -48 6 -66 -8 -45 -33 10 -12 24 -15
53 -11 25 4 50 0 69 -10 16 -8 40 -13 54 -10 17 3 29 -3 43 -22 11 -14 25 -32
31 -39 28 -33 -13 -57 -111 -66 -50 -5 -67 -3 -81 10 -14 13 -24 14 -51 5 -18
-6 -46 -14 -63 -19 -16 -5 -31 -16 -33 -25 -4 -17 -4 -17 136 -22 19 -1 37 -7
41 -13 18 -29 193 1 238 40 10 9 33 23 51 32 17 9 44 36 60 59 15 23 33 48 40
56 7 7 11 18 9 25 -4 13 -85 18 -93 5 -9 -15 -20 -10 -60 26 -41 36 -50 37
-106 10 -16 -8 -28 -10 -28 -5 0 4 -12 11 -27 14 -16 4 -35 9 -44 12 -9 2 -21
-2 -28 -10z M2594 3038 c-11 -18 28 -39 65 -36 37 3 57 28 22 28 -11 0 -23 5
-26 10 -8 14 -52 13 -61 -2z M2396 3031 c-12 -20 6 -33 38 -28 17 2 40 -2 52
-10 12 -7 29 -11 38 -7 19 7 22 33 4 36 -7 0 -24 2 -38 4 -14 2 -39 6 -56 10
-19 3 -34 2 -38 -5z M2323 3014 c-8 -22 9 -48 35 -52 25 -4 39 32 22 53 -17
20 -49 19 -57 -1z M2247 2853 c-17 -17 -6 -43 18 -43 29 0 36 34 9 44 -19 7
-19 7 -27 -1z M3672 2828 c-20 -20 -14 -40 11 -36 14 2 23 11 25 26 4 24 -16
30 -36 10z M2066 2815 c-7 -20 3 -45 19 -45 7 0 18 7 25 15 14 17 -2 45 -25
45 -7 0 -15 -7 -19 -15z M2510 2810 c0 -5 5 -10 10 -10 6 0 10 5 10 10 0 6 -4
10 -10 10 -5 0 -10 -4 -10 -10z M1275 2780 c-23 -26 -9 -43 31 -38 23 2 29 8
29 28 0 33 -34 38 -60 10z M3620 2703 c-6 -16 -17 -40 -25 -55 -8 -14 -15 -31
-15 -38 0 -6 -15 -44 -34 -84 -19 -40 -39 -91 -45 -112 -6 -22 -26 -55 -45
-73 -33 -32 -35 -37 -33 -96 1 -41 -3 -68 -12 -79 -10 -11 -11 -20 -5 -24 6
-4 14 -15 17 -25 4 -10 12 -17 19 -15 12 4 37 88 38 128 0 14 16 56 34 95 40
81 106 250 106 271 0 8 9 33 20 55 20 39 20 79 -1 79 -5 0 -14 -12 -19 -27z
M1480 2426 c0 -24 51 -176 61 -182 5 -3 9 -13 9 -22 0 -10 23 -42 50 -71 28
-29 50 -59 50 -67 0 -35 24 -64 52 -64 43 0 39 46 -7 80 -19 14 -37 37 -40 52
-4 15 -13 32 -21 39 -8 6 -14 19 -14 29 0 9 -11 22 -24 28 -18 8 -27 22 -32
49 -4 21 -13 49 -20 63 -8 14 -18 37 -24 53 -10 28 -40 38 -40 13z M2824 2089
c-16 -17 -16 -22 -4 -29 27 -17 40 -11 40 20 0 35 -10 38 -36 9z M2210 2075
c-10 -12 -10 -19 -2 -27 7 -7 12 -17 12 -22 0 -6 -7 -3 -15 8 -7 10 -20 16
-27 13 -7 -2 -20 2 -30 10 -18 16 -68 -7 -68 -31 0 -16 42 -52 71 -61 13 -4
27 -12 31 -18 4 -7 14 -2 27 14 l20 24 24 -26 c26 -27 24 -26 172 -19 11 0 27
-7 35 -17 16 -20 109 -27 121 -9 4 5 20 4 40 -3 62 -22 145 36 84 59 -14 5
-28 17 -31 25 -4 8 -11 15 -16 15 -6 0 -8 -6 -5 -13 6 -16 -64 -10 -75 7 -5 7
-11 8 -15 1 -5 -5 -31 -20 -60 -31 l-52 -22 -12 35 c-11 34 -13 35 -52 30 -36
-5 -45 -2 -68 22 -14 16 -41 33 -59 40 -40 14 -35 14 -50 -4z M2930 2036 c0
-33 20 -44 37 -21 20 28 16 45 -12 45 -20 0 -25 -5 -25 -24z M2000 2040 c0 -5
7 -10 15 -10 8 0 15 5 15 10 0 6 -7 10 -15 10 -8 0 -15 -4 -15 -10z M1747
2032 c-11 -16 7 -62 29 -77 13 -8 24 -22 24 -30 0 -8 16 -18 36 -24 36 -10 64
-6 64 10 0 16 -52 59 -68 57 -13 -2 -16 3 -14 23 3 22 -2 29 -29 38 -38 13
-37 13 -42 3z M1880 1995 c0 -8 5 -15 10 -15 6 0 10 7 10 15 0 8 -4 15 -10 15
-5 0 -10 -7 -10 -15z M1960 2000 c0 -5 7 -10 15 -10 8 0 15 5 15 10 0 6 -7 10
-15 10 -8 0 -15 -4 -15 -10z M2050 1995 c0 -8 5 -15 10 -15 6 0 10 7 10 15 0
8 -4 15 -10 15 -5 0 -10 -7 -10 -15z M2470 2000 c0 -5 7 -10 15 -10 8 0 15 5
15 10 0 6 -7 10 -15 10 -8 0 -15 -4 -15 -10z M2810 2001 c0 -5 -14 -11 -30
-15 -32 -6 -49 -31 -33 -47 13 -13 73 9 73 26 0 7 3 20 6 29 3 9 1 16 -5 16
-6 0 -11 -4 -11 -9z M2730 1990 c0 -5 5 -10 10 -10 6 0 10 5 10 10 0 6 -4 10
-10 10 -5 0 -10 -4 -10 -10z M1920 1955 c0 -8 5 -15 10 -15 6 0 10 7 10 15 0
8 -4 15 -10 15 -5 0 -10 -7 -10 -15z M2010 1955 c0 -8 5 -15 10 -15 6 0 10 7
10 15 0 8 -4 15 -10 15 -5 0 -10 -7 -10 -15z M2090 1955 c0 -8 5 -15 10 -15 6
0 10 7 10 15 0 8 -4 15 -10 15 -5 0 -10 -7 -10 -15z M3030 1952 c0 -4 12 -15
26 -26 24 -17 27 -17 42 -2 9 8 13 18 9 22 -9 9 -77 14 -77 6z M2050 1915 c0
-8 5 -15 10 -15 6 0 10 7 10 15 0 8 -4 15 -10 15 -5 0 -10 -7 -10 -15z M2102
1914 c-29 -20 -28 -25 8 -63 30 -31 50 -40 50 -21 0 6 12 10 26 10 20 0 25 4
20 16 -3 9 -6 20 -6 25 0 5 -6 9 -13 9 -7 0 -20 9 -30 20 -20 24 -26 25 -55 4z
M2220 1915 c0 -8 5 -15 10 -15 6 0 10 7 10 15 0 8 -4 15 -10 15 -5 0 -10 -7
-10 -15z M2390 1915 c0 -8 5 -15 10 -15 6 0 10 7 10 15 0 8 -4 15 -10 15 -5 0
-10 -7 -10 -15z M2730 1915 c0 -8 5 -15 10 -15 6 0 10 7 10 15 0 8 -4 15 -10
15 -5 0 -10 -7 -10 -15z M1960 1910 c0 -5 7 -10 15 -10 8 0 15 5 15 10 0 6 -7
10 -15 10 -8 0 -15 -4 -15 -10z M2300 1910 c0 -5 7 -10 15 -10 8 0 15 5 15 10
0 6 -7 10 -15 10 -8 0 -15 -4 -15 -10z M2810 1910 c0 -5 5 -10 10 -10 6 0 10
5 10 10 0 6 -4 10 -10 10 -5 0 -10 -4 -10 -10z M2980 1910 c0 -5 7 -10 15 -10
8 0 15 5 15 10 0 6 -7 10 -15 10 -8 0 -15 -4 -15 -10z M1902 1869 c-25 -40 3
-71 67 -76 19 -1 37 -7 41 -13 5 -8 16 -3 34 15 32 32 32 28 1 60 -26 25 -45
32 -45 16 0 -5 -9 -7 -20 -4 -11 3 -20 9 -20 13 0 16 -47 7 -58 -11z M2260
1870 c0 -5 7 -10 15 -10 8 0 15 5 15 10 0 6 -7 10 -15 10 -8 0 -15 -4 -15 -10z
M2340 1870 c0 -5 7 -10 15 -10 8 0 15 5 15 10 0 6 -7 10 -15 10 -8 0 -15 -4
-15 -10z M2430 1870 c0 -5 7 -10 15 -10 8 0 15 5 15 10 0 6 -7 10 -15 10 -8 0
-15 -4 -15 -10z M2600 1870 c0 -5 7 -10 15 -10 8 0 15 5 15 10 0 6 -7 10 -15
10 -8 0 -15 -4 -15 -10z M2680 1870 c0 -5 5 -10 10 -10 6 0 10 5 10 10 0 6 -4
10 -10 10 -5 0 -10 -4 -10 -10z M2770 1870 c0 -5 7 -10 15 -10 8 0 15 5 15 10
0 6 -7 10 -15 10 -8 0 -15 -4 -15 -10z M2850 1870 c0 -5 7 -10 15 -10 8 0 15
5 15 10 0 6 -7 10 -15 10 -8 0 -15 -4 -15 -10z M2940 1870 c0 -5 7 -10 15 -10
8 0 15 5 15 10 0 6 -7 10 -15 10 -8 0 -15 -4 -15 -10z M2912 1859 c2 -7 10
-15 17 -17 8 -3 12 1 9 9 -2 7 -10 15 -17 17 -8 3 -12 -1 -9 -9z M2220 1825
c0 -31 36 -56 83 -60 64 -4 97 26 62 55 -21 17 -145 21 -145 5z M2390 1825 c0
-8 5 -15 10 -15 6 0 10 7 10 15 0 8 -4 15 -10 15 -5 0 -10 -7 -10 -15z M2810
1830 c0 -5 7 -10 15 -10 8 0 15 5 15 10 0 6 -7 10 -15 10 -8 0 -15 -4 -15 -10z
M2560 1820 c0 -5 5 -10 10 -10 6 0 10 5 10 10 0 6 -4 10 -10 10 -5 0 -10 -4
-10 -10z M2090 1785 c0 -8 5 -15 10 -15 6 0 10 7 10 15 0 8 -4 15 -10 15 -5 0
-10 -7 -10 -15z M2180 1785 c0 -8 5 -15 10 -15 6 0 10 7 10 15 0 8 -4 15 -10
15 -5 0 -10 -7 -10 -15z M2430 1785 c0 -8 5 -15 10 -15 6 0 10 7 10 15 0 8 -4
15 -10 15 -5 0 -10 -7 -10 -15z M2491 1790 c-51 -12 -26 -39 37 -40 12 0 22
-4 22 -8 0 -15 109 -10 122 5 12 15 -3 33 -29 33 -7 0 -13 4 -13 8 0 10 -103
11 -139 2z M2775 1790 c-4 -7 -1 -16 6 -21 22 -14 49 -10 49 6 0 8 -4 15 -9
15 -5 0 -16 3 -24 6 -8 3 -18 0 -22 -6z M2050 1750 c0 -5 5 -10 10 -10 6 0 10
5 10 10 0 6 -4 10 -10 10 -5 0 -10 -4 -10 -10z M2220 1750 c0 -5 5 -10 10 -10
6 0 10 5 10 10 0 6 -4 10 -10 10 -5 0 -10 -4 -10 -10z M2390 1750 c0 -5 5 -10
10 -10 6 0 10 5 10 10 0 6 -4 10 -10 10 -5 0 -10 -4 -10 -10z M3400 1705 c0
-30 5 -55 10 -55 6 0 10 8 10 18 0 9 3 34 6 55 5 30 4 37 -10 37 -13 0 -16
-11 -16 -55z M2130 1740 c0 -5 7 -10 15 -10 8 0 15 5 15 10 0 6 -7 10 -15 10
-8 0 -15 -4 -15 -10z M2300 1740 c0 -5 5 -10 10 -10 6 0 10 5 10 10 0 6 -4 10
-10 10 -5 0 -10 -4 -10 -10z M3610 1347 c0 -14 5 -20 82 -87 26 -23 50 -50 53
-61 8 -25 31 -24 38 1 3 14 14 20 32 20 37 0 27 24 -12 28 -21 2 -33 10 -36
22 -3 11 -16 24 -29 30 -12 6 -41 22 -63 35 -45 28 -65 31 -65 12z M1090 1291
c-40 -21 -53 -51 -21 -51 45 0 91 36 75 61 -7 13 -15 11 -54 -10z M1000 1230
c0 -5 5 -10 10 -10 6 0 10 5 10 10 0 6 -4 10 -10 10 -5 0 -10 -4 -10 -10z
M927 1193 c-16 -15 -6 -34 15 -31 29 4 38 38 10 38 -10 0 -22 -3 -25 -7z
M3870 1192 c0 -14 23 -32 42 -32 21 0 23 11 6 28 -13 13 -48 16 -48 4z M833
1145 c-3 -9 -3 -18 0 -22 11 -10 57 7 57 22 0 20 -49 20 -57 0z M3940 1147 c0
-20 22 -37 47 -37 31 0 30 28 -3 40 -34 13 -44 13 -44 -3z M4072 1078 c3 -7
17 -14 32 -16 20 -3 27 0 24 10 -3 7 -17 14 -32 16 -20 3 -27 0 -24 -10z
M3774 1056 c-8 -22 -1 -59 13 -64 17 -5 27 22 19 53 -7 28 -24 33 -32 11z
M217 953 c-16 -15 -3 -21 63 -27 78 -8 110 -2 110 20 0 15 -159 22 -173 7z
M1252 943 c2 -10 13 -22 25 -28 13 -5 23 -20 25 -35 2 -17 10 -26 26 -28 29
-4 28 13 -3 44 -13 13 -29 33 -35 44 -13 25 -43 27 -38 3z M3767 933 c-4 -3
-7 -22 -7 -40 0 -47 24 -38 28 10 3 34 -5 46 -21 30z M118 919 c-19 -11 -25
-39 -8 -39 20 0 60 24 60 37 0 15 -28 17 -52 2z M1364 815 c3 -9 6 -19 6 -21
0 -2 7 -4 16 -4 22 0 13 34 -10 38 -14 3 -17 0 -12 -13z M3718 803 c-38 -44
-45 -93 -13 -93 7 0 20 -3 28 -6 11 -4 15 2 16 18 0 13 3 40 7 61 7 42 -11 51
-38 20z M1420 761 c0 -43 51 -111 83 -111 33 0 49 39 22 55 -10 5 -31 22 -47
38 -28 26 -58 36 -58 18z M3640 625 c-6 -19 -15 -35 -19 -35 -4 0 -37 -25 -74
-55 -36 -30 -71 -55 -76 -55 -6 0 -26 -13 -44 -30 -19 -16 -42 -30 -50 -30 -9
0 -18 -4 -21 -9 -11 -17 -91 -53 -170 -77 -245 -74 -390 -72 -821 12 -43 9
-183 49 -235 69 -25 9 -64 22 -86 30 -23 7 -50 18 -60 24 -11 6 -46 22 -79 35
-155 63 -213 90 -248 118 -36 28 -93 35 -114 14 -12 -11 35 -55 65 -61 17 -3
32 -10 32 -15 0 -5 25 -17 55 -26 30 -10 55 -21 55 -26 0 -4 9 -8 20 -8 10 0
23 -6 27 -13 22 -34 63 -60 76 -48 17 13 60 0 89 -26 23 -20 124 -63 162 -69
50 -7 106 -25 106 -33 0 -5 10 -9 23 -9 54 0 105 -22 100 -42 -3 -11 0 -20 6
-20 6 0 11 5 11 10 0 11 33 14 43 4 3 -4 39 -8 79 -10 40 -2 84 -6 98 -8 14
-2 28 -5 32 -5 4 -1 14 -8 23 -18 13 -12 19 -13 24 -4 4 6 25 11 47 10 21 -1
64 2 95 6 46 6 58 4 73 -11 16 -15 23 -16 50 -6 20 8 32 9 34 2 5 -13 42 -13
42 0 0 15 57 12 63 -2 4 -10 8 -10 14 -2 15 21 53 27 59 10 9 -24 26 -19 22 7
-2 13 2 21 9 20 6 -2 28 4 47 12 45 19 56 19 56 0 0 -8 5 -15 10 -15 6 0 10 7
10 15 0 8 -4 15 -10 15 -16 0 -11 19 11 41 14 14 28 19 44 15 17 -4 31 2 57
28 40 40 88 58 88 32 0 -9 5 -16 10 -16 14 0 12 27 -2 33 -13 5 11 31 90 100
18 15 35 41 39 57 4 25 10 30 34 30 26 0 29 3 29 35 0 28 -4 35 -19 35 -13 0
-23 -11 -31 -35z M1410 546 c0 -36 65 -75 87 -53 14 14 13 18 -10 41 -28 28
-77 35 -77 12z M1542 468 c-18 -18 -15 -25 19 -37 24 -8 36 -8 45 0 21 17 17
26 -17 38 -38 13 -33 13 -47 -1z M3720 445 c-10 -11 -10 -19 -2 -27 15 -15 44
-2 40 19 -4 23 -22 27 -38 8z M1703 403 c-55 -7 -41 -45 22 -62 23 -6 51 -20
63 -31 11 -11 30 -20 41 -20 11 0 23 -5 26 -10 3 -6 17 -7 31 -4 17 4 26 1 30
-11 5 -11 14 -15 28 -11 25 6 59 -12 39 -21 -15 -6 -17 -33 -3 -33 6 0 10 7
10 15 0 21 47 19 59 -2 8 -14 13 -15 19 -5 7 10 13 8 27 -8 10 -11 13 -20 7
-20 -7 0 -12 -4 -12 -10 0 -5 7 -10 15 -10 8 0 15 5 15 10 0 6 14 10 30 10 17
0 30 -5 30 -10 0 -6 15 -8 39 -4 34 5 43 2 71 -25 25 -23 39 -29 56 -25 15 4
24 2 24 -5 0 -6 -4 -11 -10 -11 -5 0 -10 -7 -10 -15 0 -8 5 -15 10 -15 6 0 10
6 10 14 0 23 41 31 55 12 13 -18 35 -22 35 -6 0 16 50 11 57 -6 4 -10 13 -14
29 -10 12 3 26 1 29 -4 4 -6 16 -8 27 -5 12 4 27 0 40 -12 15 -13 22 -15 25
-5 7 18 50 15 63 -5 10 -17 10 -17 20 0 12 18 60 24 60 7 0 -5 7 -10 15 -10 8
0 15 5 15 10 0 16 37 12 55 -7 11 -10 19 -12 23 -6 10 15 61 22 65 9 3 -8 9
-7 20 2 10 9 50 15 104 17 48 2 90 4 93 5 3 1 10 3 15 4 6 1 21 5 34 10 16 6
26 4 32 -5 7 -11 12 -9 24 8 9 13 23 23 31 23 8 0 14 7 14 15 0 9 16 25 35 36
34 20 54 54 40 67 -4 4 -10 1 -12 -5 -3 -7 -11 -13 -20 -13 -8 0 -22 -7 -30
-16 -11 -11 -26 -14 -50 -9 -20 3 -33 2 -33 -4 0 -25 -64 -41 -172 -45 -25 0
-50 -4 -54 -9 -11 -11 -44 -9 -44 3 0 16 -27 12 -34 -5 -7 -20 -125 -18 -133
2 -6 15 -33 18 -33 3 0 -20 -31 -22 -52 -4 -15 14 -22 16 -25 7 -5 -15 -63
-18 -63 -3 0 13 -27 13 -32 -1 -2 -7 -12 -7 -32 1 -16 6 -36 8 -44 5 -17 -6
-102 24 -102 36 0 5 -7 9 -15 9 -8 0 -15 -4 -15 -10 0 -5 -16 -2 -36 7 -28 14
-39 15 -54 5 -31 -19 -48 -15 -81 19 -24 25 -33 29 -40 18 -9 -16 -99 22 -99
42 0 6 -9 9 -19 6 -23 -6 -53 12 -33 20 16 6 15 23 -2 23 -8 0 -16 -7 -20 -15
-7 -20 -43 -19 -54 1 -6 11 -26 17 -57 20 -26 1 -55 10 -65 19 -10 9 -33 20
-52 25 -19 6 -44 19 -56 30 -11 11 -22 19 -24 18 -2 0 -18 -3 -35 -5z M3450
345 c0 -8 5 -15 10 -15 6 0 10 7 10 15 0 8 -4 15 -10 15 -5 0 -10 -7 -10 -15z
M3530 340 c0 -5 7 -10 15 -10 8 0 15 5 15 10 0 6 -7 10 -15 10 -8 0 -15 -4
-15 -10z M3582 321 c-33 -9 -62 -58 -42 -71 21 -13 22 -13 53 15 15 14 27 35
27 45 0 21 -2 22 -38 11z M3320 300 c0 -5 7 -10 15 -10 8 0 15 5 15 10 0 6 -7
10 -15 10 -8 0 -15 -4 -15 -10z M3400 300 c0 -5 7 -10 15 -10 8 0 15 5 15 10
0 6 -7 10 -15 10 -8 0 -15 -4 -15 -10z M3490 300 c0 -5 7 -10 15 -10 8 0 15 5
15 10 0 6 -7 10 -15 10 -8 0 -15 -4 -15 -10z M2270 260 c0 -5 5 -10 10 -10 6
0 10 5 10 10 0 6 -4 10 -10 10 -5 0 -10 -4 -10 -10z M3360 260 c0 -5 7 -10 15
-10 8 0 15 5 15 10 0 6 -7 10 -15 10 -8 0 -15 -4 -15 -10z M3450 256 c0 -17
24 -28 45 -20 22 9 18 21 -7 28 -33 8 -38 8 -38 -8z M2180 250 c0 -5 5 -10 10
-10 6 0 10 5 10 10 0 6 -4 10 -10 10 -5 0 -10 -4 -10 -10z M2310 215 c0 -8 5
-15 10 -15 6 0 10 7 10 15 0 8 -4 15 -10 15 -5 0 -10 -7 -10 -15z M2390 215
c0 -8 5 -15 10 -15 6 0 10 7 10 15 0 8 -4 15 -10 15 -5 0 -10 -7 -10 -15z
M3240 215 c0 -8 5 -15 10 -15 6 0 10 7 10 15 0 8 -4 15 -10 15 -5 0 -10 -7
-10 -15z M3320 215 c0 -8 5 -15 10 -15 6 0 10 7 10 15 0 8 -4 15 -10 15 -5 0
-10 -7 -10 -15z M3490 215 c0 -8 5 -15 10 -15 6 0 10 7 10 15 0 8 -4 15 -10
15 -5 0 -10 -7 -10 -15z M2480 210 c0 -5 5 -10 10 -10 6 0 10 5 10 10 0 6 -4
10 -10 10 -5 0 -10 -4 -10 -10z M2560 210 c0 -5 5 -10 10 -10 6 0 10 5 10 10
0 6 -4 10 -10 10 -5 0 -10 -4 -10 -10z M2520 175 c0 -8 5 -15 10 -15 6 0 10 7
10 15 0 8 -4 15 -10 15 -5 0 -10 -7 -10 -15z M2690 175 c0 -8 5 -15 10 -15 6
0 10 7 10 15 0 8 -4 15 -10 15 -5 0 -10 -7 -10 -15z M2940 175 c0 -8 5 -15 10
-15 6 0 10 7 10 15 0 8 -4 15 -10 15 -5 0 -10 -7 -10 -15z M3110 175 c0 -8 5
-15 10 -15 6 0 10 7 10 15 0 8 -4 15 -10 15 -5 0 -10 -7 -10 -15z M3450 175
c0 -8 5 -15 10 -15 6 0 10 7 10 15 0 8 -4 15 -10 15 -5 0 -10 -7 -10 -15z
M2600 170 c0 -5 7 -10 15 -10 8 0 15 5 15 10 0 6 -7 10 -15 10 -8 0 -15 -4
-15 -10z M2770 170 c0 -5 5 -10 10 -10 6 0 10 5 10 10 0 6 -4 10 -10 10 -5 0
-10 -4 -10 -10z M2860 170 c0 -5 5 -10 10 -10 6 0 10 5 10 10 0 6 -4 10 -10
10 -5 0 -10 -4 -10 -10z M3020 170 c0 -5 7 -10 15 -10 8 0 15 5 15 10 0 6 -7
10 -15 10 -8 0 -15 -4 -15 -10z M3190 170 c0 -5 7 -10 15 -10 8 0 15 5 15 10
0 6 -7 10 -15 10 -8 0 -15 -4 -15 -10z M3530 170 c0 -5 5 -10 10 -10 6 0 10 5
10 10 0 6 -4 10 -10 10 -5 0 -10 -4 -10 -10z M2130 130 c0 -5 5 -10 10 -10 6
0 10 5 10 10 0 6 -4 10 -10 10 -5 0 -10 -4 -10 -10z M2220 130 c0 -5 7 -10 15
-10 8 0 15 5 15 10 0 6 -7 10 -15 10 -8 0 -15 -4 -15 -10z M2900 130 c0 -5 5
-10 10 -10 6 0 10 5 10 10 0 6 -4 10 -10 10 -5 0 -10 -4 -10 -10z M3400 130
c0 -5 7 -10 15 -10 8 0 15 5 15 10 0 6 -7 10 -15 10 -8 0 -15 -4 -15 -10z
M3490 130 c0 -5 7 -10 15 -10 8 0 15 5 15 10 0 6 -7 10 -15 10 -8 0 -15 -4
-15 -10z M2260 90 c0 -5 7 -10 15 -10 8 0 15 5 15 10 0 6 -7 10 -15 10 -8 0
-15 -4 -15 -10z M3360 90 c0 -5 7 -10 15 -10 8 0 15 5 15 10 0 6 -7 10 -15 10
-8 0 -15 -4 -15 -10z M3450 85 c0 -8 5 -15 10 -15 6 0 10 7 10 15 0 8 -4 15
-10 15 -5 0 -10 -7 -10 -15z M3530 90 c0 -5 5 -10 10 -10 6 0 10 5 10 10 0 6
-4 10 -10 10 -5 0 -10 -4 -10 -10z M2220 45 c0 -8 5 -15 10 -15 6 0 10 7 10
15 0 8 -4 15 -10 15 -5 0 -10 -7 -10 -15z M2390 45 c0 -8 5 -15 10 -15 6 0 10
7 10 15 0 8 -4 15 -10 15 -5 0 -10 -7 -10 -15z M2480 45 c0 -8 5 -15 10 -15 6
0 10 7 10 15 0 8 -4 15 -10 15 -5 0 -10 -7 -10 -15z M2560 45 c0 -8 5 -15 10
-15 6 0 10 7 10 15 0 8 -4 15 -10 15 -5 0 -10 -7 -10 -15z M3070 45 c0 -8 5
-15 10 -15 6 0 10 7 10 15 0 8 -4 15 -10 15 -5 0 -10 -7 -10 -15z M3150 45 c0
-8 5 -15 10 -15 6 0 10 7 10 15 0 8 -4 15 -10 15 -5 0 -10 -7 -10 -15z M3240
45 c0 -8 5 -15 10 -15 6 0 10 7 10 15 0 8 -4 15 -10 15 -5 0 -10 -7 -10 -15z
M3320 45 c0 -8 5 -15 10 -15 6 0 10 7 10 15 0 8 -4 15 -10 15 -5 0 -10 -7 -10
-15z M3410 45 c0 -8 5 -15 10 -15 6 0 10 7 10 15 0 8 -4 15 -10 15 -5 0 -10
-7 -10 -15z M3490 45 c0 -8 5 -15 10 -15 6 0 10 7 10 15 0 8 -4 15 -10 15 -5
0 -10 -7 -10 -15z M2310 40 c0 -5 5 -10 10 -10 6 0 10 5 10 10 0 6 -4 10 -10
10 -5 0 -10 -4 -10 -10z M2350 10 c0 -5 5 -10 10 -10 6 0 10 5 10 10 0 6 -4
10 -10 10 -5 0 -10 -4 -10 -10z M2520 10 c0 -5 5 -10 10 -10 6 0 10 5 10 10 0
6 -4 10 -10 10 -5 0 -10 -4 -10 -10z M2690 10 c0 -5 5 -10 10 -10 6 0 10 5 10
10 0 6 -4 10 -10 10 -5 0 -10 -4 -10 -10z M2770 10 c0 -5 5 -10 10 -10 6 0 10
5 10 10 0 6 -4 10 -10 10 -5 0 -10 -4 -10 -10z M2860 10 c0 -5 5 -10 10 -10 6
0 10 5 10 10 0 6 -4 10 -10 10 -5 0 -10 -4 -10 -10z M2940 10 c0 -5 5 -10 10
-10 6 0 10 5 10 10 0 6 -4 10 -10 10 -5 0 -10 -4 -10 -10z M3110 10 c0 -5 5
-10 10 -10 6 0 10 5 10 10 0 6 -4 10 -10 10 -5 0 -10 -4 -10 -10z M3280 10 c0
-5 5 -10 10 -10 6 0 10 5 10 10 0 6 -4 10 -10 10 -5 0 -10 -4 -10 -10z M3450
10 c0 -5 5 -10 10 -10 6 0 10 5 10 10 0 6 -4 10 -10 10 -5 0 -10 -4 -10 -10z"/>
</g>
</svg>
</g>
<rect x="66.0" y="0" width="44" height="13" fill="#d7deec" fill-opacity="0.85" transform="rotate(2 88.0 6)"/>
</svg>
