<svg xmlns="http://www.w3.org/2000/svg" viewBox="0 0 176 222" width="176" height="222" role="img">
<g transform="rotate(-1.2 88.0 108.0)">
<rect x="2" y="6" width="172" height="212" fill="#fbfaf5" stroke="#1f2a44" stroke-width="1.2"/>
<svg x="8" y="12" width="160" height="200" viewBox="0 0 480 600" preserveAspectRatio="xMidYMid slice">
<rect width="480" height="600" fill="#fbfaf5"/>
<g transform="translate(0.000000,600.000000) scale(0.100000,-0.100000)"
fill="#1f2a44" stroke="none">
<path d="M2265 5579 c-33 -5 -78 -13 -100 -18 -22 -5 -83 -20 -135 -32 -52
-12 -99 -26 -105 -30 -5 -5 -15 -9 -23 -9 -20 0 -138 -56 -197 -93 -116 -74
-191 -140 -328 -291 -68 -75 -177 -220 -177 -236 0 -9 -9 -27 -20 -40 -11 -13
-20 -31 -20 -41 0 -10 -11 -43 -25 -73 -14 -30 -25 -61 -25 -68 0 -7 -14 -33
-30 -57 -17 -24 -30 -54 -30 -66 0 -13 -7 -36 -15 -51 -8 -16 -15 -39 -15 -51
0 -12 -9 -44 -19 -71 -11 -28 -27 -85 -35 -128 -16 -83 -54 -174 -89 -211 -15
-18 -19 -31 -14 -64 6 -48 -18 -100 -115 -241 -22 -33 -22 -41 -1 -151 16 -86
16 -88 -5 -131 -31 -61 -27 -126 8 -126 23 0 57 -30 61 -55 3 -13 14 -21 32
-23 18 -2 27 -9 27 -22 0 -10 5 -20 12 -22 6 -2 13 -22 14 -44 14 -216 16
-192 -29 -269 -54 -91 -87 -134 -112 -141 -24 -8 -75 -45 -75 -55 0 -4 14 -12
32 -18 l32 -11 -42 -43 c-23 -24 -42 -50 -42 -60 0 -24 37 -22 50 3 10 19 12
19 27 4 17 -17 2 -37 -21 -28 -7 2 -29 -13 -50 -35 -34 -34 -37 -42 -24 -54
32 -32 52 -29 98 18 25 24 48 45 53 45 18 0 4 -48 -22 -73 -16 -16 -28 -39
-28 -53 0 -14 -9 -35 -20 -47 -52 -58 -57 -200 -10 -310 25 -59 57 -52 57 12
0 28 -4 52 -9 55 -4 3 -11 24 -15 46 -7 46 10 87 55 134 36 37 61 25 26 -13
-43 -45 -50 -67 -35 -109 29 -84 76 -138 100 -114 6 6 12 47 13 92 2 45 6 84
9 87 3 4 6 21 6 39 0 22 10 44 29 66 15 18 34 51 41 73 7 22 16 44 21 49 5 6
9 20 9 33 0 13 7 26 15 29 20 8 19 24 -2 39 -15 11 -11 35 7 35 16 0 42 -63
29 -71 -6 -4 -8 -12 -4 -18 4 -7 1 -19 -6 -27 -21 -26 -12 -211 12 -250 10
-17 19 -38 19 -47 0 -8 14 -29 30 -47 44 -47 40 -64 -33 -150 -33 -38 -134
-110 -155 -110 -8 0 -26 -7 -40 -15 -15 -8 -72 -31 -127 -50 -93 -33 -105 -40
-173 -108 -74 -74 -91 -117 -50 -125 18 -3 88 59 88 77 0 16 45 42 62 36 8 -3
22 3 32 14 24 26 88 49 94 32 5 -15 22 -14 36 3 13 16 66 30 66 17 0 -5 -5
-11 -11 -13 -6 -2 -8 -14 -4 -30 9 -36 52 -47 72 -18 16 23 72 55 81 46 15
-16 8 -43 -10 -38 -10 2 -18 -1 -18 -7 0 -6 5 -11 11 -11 5 0 8 -4 4 -10 -3
-5 -11 -7 -18 -4 -7 2 -32 -14 -55 -36 -52 -49 -56 -49 -48 -5 4 22 3 35 -4
35 -5 0 -10 -4 -10 -10 0 -5 -7 -10 -15 -10 -8 0 -15 -5 -15 -11 0 -20 -33
-44 -57 -41 -20 3 -27 -4 -41 -37 -19 -46 -29 -49 -62 -21 -13 11 -27 20 -32
20 -17 0 -7 18 13 23 12 3 22 0 26 -9 8 -22 18 -17 67 32 54 54 53 50 20 81
l-26 24 -15 -20 c-8 -12 -20 -21 -26 -21 -7 0 -17 -10 -22 -23 -6 -12 -19 -22
-30 -22 -11 0 -21 -8 -23 -18 -5 -25 -42 -67 -59 -67 -7 0 -13 -8 -13 -17 1
-21 33 -63 49 -63 12 0 23 -17 26 -39 5 -52 39 -131 61 -144 8 -4 14 -15 14
-22 0 -8 6 -15 14 -15 20 0 45 -32 29 -37 -15 -5 -17 -33 -3 -33 6 0 10 -11
10 -25 0 -14 -4 -25 -10 -25 -5 0 -10 -7 -10 -15 0 -8 5 -15 10 -15 6 0 10 5
10 11 0 8 4 8 14 0 8 -7 12 -21 9 -31 -6 -22 12 -28 20 -7 3 8 10 7 23 -7 14
-13 15 -20 7 -23 -21 -8 -15 -26 6 -20 13 3 18 0 15 -8 -3 -7 2 -19 10 -28 9
-9 16 -31 17 -49 0 -18 10 -60 22 -93 20 -55 25 -60 55 -63 30 -3 32 -1 33 30
3 58 -3 123 -11 128 -10 7 -6 48 7 61 8 8 15 4 26 -11 20 -29 38 -22 52 20 6
18 18 37 26 41 8 4 27 13 42 20 16 7 35 26 43 41 21 40 86 108 104 108 19 0
60 71 60 105 0 14 18 54 40 87 22 34 40 72 40 84 0 12 7 27 15 34 8 6 17 22
21 33 3 12 20 51 38 87 17 36 31 70 31 75 2 23 30 85 38 85 5 0 7 6 4 14 -3 8
2 21 12 30 16 15 19 15 33 -1 8 -10 13 -23 11 -30 -2 -6 1 -14 6 -18 15 -9 14
-42 -1 -48 -10 -4 -10 -8 -2 -14 17 -11 31 -75 38 -166 6 -78 21 -139 57 -232
10 -28 19 -58 19 -67 0 -18 26 -48 41 -48 5 0 9 8 9 18 0 9 9 30 20 47 26 40
-2 135 -52 173 -25 19 -22 37 9 60 28 20 27 31 -9 107 -6 14 -5 30 1 48 6 15
8 33 5 41 -3 8 3 29 12 48 14 26 19 61 21 158 1 69 4 153 5 187 2 35 0 64 -4
65 -5 2 -11 30 -14 63 -3 33 -12 80 -19 105 -8 25 -16 61 -18 80 -10 90 -57
200 -86 200 -6 0 -16 9 -23 20 -7 11 -18 20 -25 20 -6 0 -15 9 -18 21 -4 12
-14 29 -23 39 -31 33 -52 64 -52 77 0 7 -4 13 -10 13 -5 0 -12 11 -16 24 -3
13 -17 45 -30 72 -13 26 -24 56 -24 66 0 10 -4 18 -10 18 -5 0 -10 13 -10 29
0 17 -4 32 -9 36 -5 3 -17 28 -26 55 -15 45 -19 49 -43 46 -26 -3 -27 0 -26
33 0 26 5 35 16 33 11 -1 15 9 16 39 1 23 6 47 11 53 6 7 7 27 2 46 -4 19 -7
56 -6 83 2 26 -1 47 -6 47 -5 0 -9 11 -9 25 0 14 4 25 8 25 5 0 8 34 7 75 -1
42 2 78 7 81 5 3 6 15 3 25 -4 11 -1 27 6 35 7 9 14 33 15 54 1 21 6 45 10 52
4 7 9 32 11 56 1 24 8 50 14 58 9 11 9 18 1 26 -18 18 -14 41 8 61 19 16 20
15 26 -8 8 -33 13 -32 58 14 21 22 64 51 96 65 62 28 47 28 233 -1 20 -3 37
-9 37 -13 0 -4 14 -7 31 -7 17 0 34 -4 37 -9 13 -17 51 -34 77 -34 60 0 32 89
-38 120 -45 20 -167 37 -314 45 l-92 5 -76 -75 c-42 -41 -81 -73 -86 -70 -14
9 -11 32 8 50 11 12 13 19 5 24 -7 4 -8 19 -3 43 5 20 6 48 4 62 -3 13 1 38 9
54 8 16 13 43 10 61 -2 18 1 38 9 47 8 9 14 31 16 48 1 17 7 45 14 61 7 17 14
40 15 51 1 12 10 39 20 60 10 22 18 46 19 54 7 52 108 199 138 200 17 1 52 32
60 53 4 10 17 17 32 17 14 0 25 4 25 10 0 14 45 41 74 44 13 2 32 10 41 20 17
17 20 18 77 21 20 1 44 9 53 19 20 20 34 20 41 1 7 -17 34 -21 34 -5 0 15 57
12 64 -2 3 -9 8 -8 16 5 13 21 49 22 56 2 8 -20 26 -19 22 1 -5 27 49 27 67 1
15 -20 17 -21 26 -4 12 21 48 23 55 2 7 -17 31 -20 36 -5 2 7 14 7 36 -1 25
-9 40 -8 64 2 24 10 33 10 36 1 4 -14 32 -16 32 -2 0 15 57 12 64 -2 3 -9 8
-8 16 5 11 18 13 18 32 1 18 -17 18 -19 3 -30 -18 -13 -20 -8 38 -76 9 -12 17
-27 17 -35 0 -7 4 -13 8 -13 5 0 17 -8 28 -19 11 -10 29 -23 40 -29 32 -17 59
-71 40 -78 -20 -8 -21 -30 -1 -38 8 -3 20 -16 25 -28 15 -34 33 -62 48 -71 6
-4 12 -17 12 -27 0 -11 5 -20 10 -20 6 0 10 -8 10 -19 0 -10 11 -30 25 -45 14
-15 23 -32 20 -37 -4 -5 0 -16 7 -24 35 -39 41 -49 41 -73 0 -15 6 -31 14 -37
11 -8 16 -32 17 -78 0 -37 4 -67 7 -67 4 0 9 -15 12 -32 14 -77 20 -98 29 -98
6 0 8 -6 5 -13 -3 -8 4 -40 15 -72 11 -32 20 -71 20 -87 1 -16 5 -31 10 -34 4
-3 8 -18 8 -34 0 -16 5 -32 10 -35 6 -4 9 -25 6 -48 -3 -22 -2 -46 2 -51 12
-20 9 -54 -5 -49 -15 6 -18 -13 -3 -22 15 -9 12 -36 -7 -57 -10 -12 -13 -22
-7 -26 9 -7 34 -56 34 -68 0 -3 -9 -2 -20 1 -24 8 -26 -3 -4 -20 16 -11 16
-14 0 -46 -10 -21 -13 -35 -6 -37 13 -5 13 -45 -1 -59 -8 -8 -2 -20 25 -45 37
-34 46 -65 23 -74 -9 -3 -13 -22 -13 -53 1 -59 -17 -86 -47 -70 -25 14 -47
-10 -47 -52 0 -15 -5 -31 -10 -34 -6 -4 -8 -15 -5 -24 6 -21 -18 -82 -40 -101
-9 -7 -14 -19 -11 -26 4 -11 -29 -89 -59 -134 -5 -8 -10 -32 -10 -53 -1 -21
-7 -42 -14 -46 -8 -5 -10 -18 -5 -35 3 -15 1 -32 -5 -40 -6 -8 -13 -27 -14
-44 -1 -19 -6 -28 -14 -25 -7 3 -13 1 -13 -5 0 -5 7 -12 15 -16 20 -7 19 -30
-1 -51 -9 -9 -13 -19 -9 -23 4 -4 10 -1 12 6 3 6 9 12 15 12 14 0 -1 -62 -18
-76 -18 -14 -18 -30 0 -37 18 -7 15 -129 -2 -135 -8 -2 -10 -17 -6 -43 5 -28
3 -39 -6 -39 -9 0 -10 -10 -5 -37 5 -21 7 -48 7 -60 -1 -13 3 -23 8 -23 16 0
11 -50 -5 -57 -9 -3 -15 -15 -13 -27 2 -17 -2 -20 -19 -18 -25 3 -32 -13 -10
-21 9 -3 12 -16 9 -36 -3 -23 0 -31 11 -31 17 0 18 -173 2 -247 -8 -35 11 -48
21 -15 3 9 12 31 21 47 21 40 85 426 75 453 -6 16 10 15 33 -1 14 -11 17 -22
12 -45 -4 -17 -2 -34 3 -37 6 -3 10 -17 10 -29 0 -13 7 -29 15 -36 8 -7 15
-20 15 -30 0 -10 7 -23 15 -30 8 -7 15 -18 15 -24 0 -23 97 -202 127 -233 55
-59 104 -39 69 28 l-13 26 39 -19 c21 -10 41 -25 45 -33 8 -22 46 -18 67 7 17
20 20 20 31 5 14 -19 35 -23 35 -6 0 6 14 3 33 -7 17 -9 38 -20 46 -23 12 -6
31 -35 56 -86 3 -6 8 -4 12 5 22 50 113 94 125 61 2 -5 23 -11 48 -14 34 -3
47 -9 55 -25 5 -12 13 -22 17 -22 4 0 17 -18 28 -39 27 -54 16 -237 -17 -274
-29 -32 -34 -43 -27 -61 14 -37 72 9 97 79 35 96 41 151 24 222 -15 63 -15 69
2 112 46 116 61 157 61 168 0 7 13 34 29 61 20 35 27 57 23 81 -3 23 1 38 16
54 20 21 21 30 8 102 -2 11 -4 26 -5 33 0 7 -14 18 -31 23 -29 11 -34 19 -31
46 1 7 -3 13 -9 13 -21 0 -10 171 13 197 15 17 18 29 13 55 -4 18 -10 62 -12
97 -5 57 -3 63 10 51 9 -7 16 -18 16 -25 0 -17 23 -25 49 -18 43 11 25 49 -68
143 -49 50 -94 90 -100 90 -6 0 -11 9 -11 20 0 11 -11 27 -25 36 -14 9 -25 22
-25 29 0 7 -21 31 -46 54 -45 40 -46 40 -60 138 -8 54 -17 113 -20 131 -5 26
-2 38 15 54 25 23 25 61 -1 66 -12 2 -19 -5 -24 -22 -8 -35 -33 -54 -44 -36
-5 8 -6 17 -2 20 18 13 28 49 24 83 -3 30 1 43 18 62 12 12 23 38 24 56 2 19
9 53 16 77 29 93 -22 333 -76 365 -8 4 -14 14 -14 22 0 8 -9 19 -20 25 -11 6
-20 19 -20 30 0 10 -4 21 -9 25 -5 3 -17 31 -26 63 -9 31 -27 77 -40 102 -55
104 -135 330 -135 381 0 10 -6 33 -14 51 -8 18 -24 75 -36 127 -13 52 -29 106
-36 120 -8 14 -14 30 -14 34 0 4 -24 58 -53 120 -30 62 -60 127 -67 145 -7 17
-16 32 -20 32 -4 0 -24 28 -45 63 -77 125 -139 194 -202 223 -28 14 -56 31
-63 39 -6 7 -47 26 -91 40 -44 15 -85 32 -92 39 -6 7 -26 20 -43 30 -16 10
-34 28 -40 40 -22 51 -84 66 -295 70 -107 2 -221 0 -254 -5z m-277 -141 c-3
-7 -13 -15 -24 -17 -16 -3 -17 -1 -5 13 16 19 34 21 29 4z m-102 -52 c12 -13
12 -17 -2 -31 -13 -12 -19 -13 -24 -5 -5 9 -20 0 -46 -27 -49 -49 -107 -71
-129 -49 -14 13 -13 16 4 25 14 8 21 8 24 -2 3 -8 10 -5 21 10 9 12 34 32 56
44 22 13 40 26 40 30 0 4 8 10 18 12 9 3 18 5 20 6 2 0 10 -5 18 -13z m-216
-126 c0 -19 -5 -24 -24 -25 -10 -1 -23 -9 -28 -18 -5 -10 -15 -17 -23 -17 -7
0 -15 -6 -18 -12 -2 -7 -8 -10 -13 -5 -4 4 12 25 36 47 43 39 70 50 70 30z
m1574 -195 c-3 -7 11 -29 30 -49 20 -20 36 -43 36 -51 0 -8 5 -15 10 -15 6 0
16 -12 22 -27 7 -16 19 -37 27 -47 12 -14 13 -20 4 -23 -21 -7 -15 -26 6 -20
10 2 18 -1 17 -7 0 -6 8 -29 19 -50 15 -29 17 -40 8 -43 -15 -5 -18 -33 -4
-33 5 0 12 6 14 13 8 18 27 -12 20 -31 -4 -8 1 -18 10 -23 25 -14 54 -99 37
-109 -11 -7 -10 -12 7 -27 25 -21 45 -84 33 -103 -6 -10 -12 -9 -27 5 -13 13
-14 20 -5 23 17 5 15 22 -3 22 -8 0 -15 -5 -15 -12 0 -6 -3 -8 -7 -4 -6 6 -12
53 -14 114 -1 12 -16 38 -35 57 -19 20 -34 44 -34 55 0 10 -5 22 -11 26 -6 3
-8 17 -4 31 4 19 1 29 -15 40 -11 8 -20 18 -20 24 0 5 -12 28 -27 52 -15 23
-26 52 -25 64 1 11 -5 23 -13 27 -24 9 -66 103 -59 132 5 18 9 22 14 13 5 -7
6 -18 4 -24z m-2003 -470 c-12 -25 -26 -45 -32 -45 -6 0 -9 -8 -7 -17 5 -22
-26 -87 -58 -121 -21 -23 -24 -24 -30 -8 -4 11 1 24 15 38 12 11 20 26 17 34
-5 14 53 120 89 162 28 32 31 10 6 -43z m2072 16 c29 -31 35 -57 15 -63 -8 -3
2 -18 25 -40 34 -33 50 -78 27 -78 -5 0 -10 -6 -10 -14 0 -16 24 -28 43 -21
20 8 40 -11 40 -40 0 -17 10 -38 28 -55 16 -15 29 -35 29 -44 0 -19 -36 -22
-43 -3 -10 23 -24 -13 -22 -54 2 -28 9 -45 24 -55 11 -8 21 -21 21 -28 0 -14
45 -56 59 -56 5 0 13 -10 17 -22 3 -12 15 -31 25 -42 21 -21 16 -32 -16 -38
-14 -2 -19 2 -17 13 1 9 -14 34 -34 55 -19 22 -46 51 -60 65 -13 14 -24 29
-24 33 0 4 -7 14 -15 22 -17 17 -20 44 -5 44 6 0 10 7 10 15 0 8 -4 15 -10 15
-5 0 -10 -5 -10 -11 0 -5 -4 -8 -10 -4 -5 3 -7 11 -4 18 2 7 -5 24 -16 37 -18
21 -19 25 -5 40 20 22 19 33 -5 48 -11 7 -20 19 -20 26 0 8 -9 18 -20 21 -11
3 -20 15 -20 26 0 10 -4 19 -9 19 -9 0 -34 62 -35 85 -1 6 -7 24 -14 41 -12
28 -11 34 4 53 23 27 24 27 57 -8z m252 -234 c0 -26 -20 -25 -23 2 -3 16 1 22
10 19 7 -3 13 -12 13 -21z m-9 -180 c4 -11 16 -29 28 -38 11 -10 18 -20 15
-23 -8 -8 -74 53 -82 75 -4 13 -1 16 13 12 11 -3 22 -15 26 -26z m268 -1074
c-3 -21 -12 -43 -20 -49 -26 -21 -6 -49 29 -40 6 1 9 1 5 -1 -5 -3 -8 -11 -8
-19 0 -11 -8 -14 -27 -12 -33 4 -67 73 -43 88 7 4 10 15 7 23 -7 20 18 44 26
25 4 -10 9 -8 17 5 17 27 22 20 14 -20z m-2484 -104 c0 -20 -21 -49 -35 -49
-20 0 -19 19 2 42 18 20 33 24 33 7z m2524 -23 c-3 -8 7 -26 23 -40 24 -23 28
-34 28 -81 0 -30 4 -55 8 -55 26 0 15 -35 -22 -71 -47 -46 -47 -46 -24 -79 12
-17 13 -25 5 -28 -7 -2 -12 -8 -12 -13 0 -14 28 -11 34 4 2 6 4 3 4 -8 -2 -40
2 -55 16 -55 8 0 22 -10 31 -22 10 -16 18 -19 23 -11 5 8 19 5 47 -11 41 -23
59 -56 31 -56 -9 0 -16 -4 -16 -10 0 -5 7 -10 15 -10 8 0 15 5 15 10 0 6 4 10
9 10 13 0 21 -38 8 -43 -6 -2 8 -21 31 -43 47 -44 50 -53 23 -76 -17 -14 -22
-14 -38 -3 -10 9 -13 14 -5 15 6 0 12 7 12 15 0 16 -16 21 -22 6 -1 -5 -12 -3
-23 6 -14 11 -16 17 -7 20 16 6 15 23 -2 23 -8 0 -16 -7 -20 -15 -10 -28 -45
-18 -43 13 2 23 -2 27 -23 26 -16 -1 -38 12 -62 36 -43 42 -47 56 -18 65 27 9
25 16 -10 54 -33 33 -46 38 -53 19 -3 -9 -10 -8 -23 6 -14 13 -15 20 -6 23 15
6 16 33 1 33 -5 0 -3 10 5 22 9 12 16 30 16 38 0 9 19 33 41 54 l42 38 -22 43
c-12 23 -19 49 -16 57 3 8 -3 25 -15 38 -23 27 -25 45 -7 64 14 17 28 11 21
-8z m-2968 -257 c-1 -17 -10 -37 -20 -44 -10 -8 -16 -21 -13 -29 3 -8 -1 -20
-9 -26 -10 -9 -14 -9 -14 -1 0 6 -4 11 -10 11 -13 0 -13 -27 0 -32 6 -2 6 -15
0 -38 -8 -30 -14 -36 -37 -35 -35 0 -63 23 -43 35 7 4 14 19 15 32 1 16 16 32
48 53 26 17 49 41 53 55 6 19 23 47 30 50 1 0 1 -14 0 -31z m3151 -75 c-9 -9
-28 6 -21 18 4 6 10 6 17 -1 6 -6 8 -13 4 -17z m-2922 -320 c1 -16 5 -36 9
-45 4 -9 -2 -25 -14 -39 -13 -15 -20 -19 -21 -9 -1 8 -3 28 -5 44 -4 48 6 99
18 87 5 -5 11 -23 13 -38z m2689 -77 c27 -25 46 -52 46 -64 0 -12 4 -23 9 -25
13 -5 24 -48 12 -48 -6 0 -11 -5 -11 -11 0 -6 9 -9 20 -6 21 5 50 -18 29 -25
-6 -2 24 -40 68 -83 90 -90 107 -116 99 -151 -6 -24 -46 -36 -46 -14 0 6 -6
10 -14 10 -7 0 -25 15 -39 33 -14 17 -41 49 -61 71 -20 21 -36 42 -36 46 0 4
-11 12 -25 18 -26 12 -59 75 -56 105 1 9 -3 17 -8 17 -6 0 -11 -4 -11 -10 0
-5 -9 -10 -20 -10 -11 0 -23 -7 -26 -15 -4 -8 -10 -13 -15 -10 -4 3 -6 12 -2
20 3 9 -5 24 -18 35 l-24 20 25 21 c16 15 21 23 13 26 -21 7 -15 38 12 67 30
33 26 34 79 -17z m-2886 -801 c-20 -15 -24 -36 -7 -36 8 0 8 -5 -1 -15 -8 -9
-21 -13 -36 -9 -15 4 -24 2 -24 -5 0 -6 5 -11 10 -11 16 0 12 -50 -6 -67 -8
-9 -13 -22 -10 -29 3 -7 1 -16 -4 -19 -6 -4 -10 -1 -10 4 0 6 -4 11 -10 11 -5
0 -10 -7 -10 -15 0 -8 5 -15 10 -15 6 0 10 -7 10 -16 0 -9 -5 -14 -11 -12 -15
5 -53 68 -40 68 6 0 11 5 11 10 0 6 -11 8 -25 4 -20 -5 -25 -2 -30 19 -4 14
-18 34 -31 46 -30 26 -30 36 -2 55 17 12 24 13 31 3 7 -9 10 -9 14 1 2 6 17
12 33 12 16 0 30 -6 33 -12 3 -9 11 -4 24 12 15 18 32 26 59 27 34 2 37 1 22
-11z m312 -274 c0 -5 -12 -18 -26 -31 -14 -12 -23 -28 -20 -36 6 -16 -18 -38
-44 -40 -11 -1 -16 3 -13 12 3 8 13 11 24 8 11 -4 19 -2 19 4 0 6 -4 11 -10
11 -18 0 -10 20 20 50 30 29 50 38 50 22z M3320 4880 c0 -5 7 -10 15 -10 8 0
15 5 15 10 0 6 -7 10 -15 10 -8 0 -15 -4 -15 -10z M1160 4500 c0 -5 7 -10 15
-10 8 0 15 5 15 10 0 6 -7 10 -15 10 -8 0 -15 -4 -15 -10z M3280 4585 c0 -8 5
-15 10 -15 6 0 10 7 10 15 0 8 -4 15 -10 15 -5 0 -10 -7 -10 -15z M3280 4500
c0 -5 7 -10 15 -10 8 0 15 5 15 10 0 6 -7 10 -15 10 -8 0 -15 -4 -15 -10z
M3320 4460 c0 -5 7 -10 15 -10 8 0 15 5 15 10 0 6 -7 10 -15 10 -8 0 -15 -4
-15 -10z M3410 4375 c0 -8 5 -15 10 -15 6 0 10 7 10 15 0 8 -4 15 -10 15 -5 0
-10 -7 -10 -15z M3410 4285 c0 -8 5 -15 10 -15 6 0 10 7 10 15 0 8 -4 15 -10
15 -5 0 -10 -7 -10 -15z M3830 2675 c0 -8 5 -15 10 -15 6 0 10 7 10 15 0 8 -4
15 -10 15 -5 0 -10 -7 -10 -15z M3920 2505 c0 -8 5 -15 10 -15 6 0 10 7 10 15
0 8 -4 15 -10 15 -5 0 -10 -7 -10 -15z M4000 2505 c0 -8 5 -15 10 -15 6 0 10
7 10 15 0 8 -4 15 -10 15 -5 0 -10 -7 -10 -15z M3960 2465 c0 -8 5 -15 10 -15
6 0 10 7 10 15 0 8 -4 15 -10 15 -5 0 -10 -7 -10 -15z M4000 2420 c0 -5 7 -10
15 -10 8 0 15 5 15 10 0 6 -7 10 -15 10 -8 0 -15 -4 -15 -10z M770 2590 c0 -5
7 -10 15 -10 8 0 15 5 15 10 0 6 -7 10 -15 10 -8 0 -15 -4 -15 -10z M3740
2250 c0 -5 7 -10 15 -10 8 0 15 5 15 10 0 6 -7 10 -15 10 -8 0 -15 -4 -15 -10z
M3790 2205 c0 -8 5 -15 10 -15 6 0 10 7 10 15 0 8 -4 15 -10 15 -5 0 -10 -7
-10 -15z M3750 2165 c0 -8 5 -15 10 -15 6 0 10 7 10 15 0 8 -4 15 -10 15 -5 0
-10 -7 -10 -15z M3830 2165 c0 -8 5 -15 10 -15 6 0 10 7 10 15 0 8 -4 15 -10
15 -5 0 -10 -7 -10 -15z M3830 2080 c0 -5 7 -10 15 -10 8 0 15 5 15 10 0 6 -7
10 -15 10 -8 0 -15 -4 -15 -10z M3870 2040 c0 -5 7 -10 15 -10 8 0 15 5 15 10
0 6 -7 10 -15 10 -8 0 -15 -4 -15 -10z M3920 1995 c0 -8 5 -15 10 -15 6 0 10
7 10 15 0 8 -4 15 -10 15 -5 0 -10 -7 -10 -15z M3960 1955 c0 -8 5 -15 10 -15
6 0 10 7 10 15 0 8 -4 15 -10 15 -5 0 -10 -7 -10 -15z M4000 1910 c0 -5 7 -10
15 -10 8 0 15 5 15 10 0 6 -7 10 -15 10 -8 0 -15 -4 -15 -10z M4040 1870 c0
-5 7 -10 15 -10 8 0 15 5 15 10 0 6 -7 10 -15 10 -8 0 -15 -4 -15 -10z M830
1360 c0 -5 5 -10 10 -10 6 0 10 5 10 10 0 6 -4 10 -10 10 -5 0 -10 -4 -10 -10z
M2680 5010 c0 -5 7 -10 15 -10 8 0 15 5 15 10 0 6 -7 10 -15 10 -8 0 -15 -4
-15 -10z M1880 4970 c0 -5 5 -10 10 -10 6 0 10 5 10 10 0 6 -4 10 -10 10 -5 0
-10 -4 -10 -10z M2730 4970 c0 -5 5 -10 10 -10 6 0 10 5 10 10 0 6 -4 10 -10
10 -5 0 -10 -4 -10 -10z M2900 4795 c0 -8 5 -15 10 -15 6 0 10 7 10 15 0 8 -4
15 -10 15 -5 0 -10 -7 -10 -15z M2825 4218 c-12 -7 -50 -11 -93 -9 -55 2 -95
-4 -165 -25 -105 -30 -117 -37 -117 -69 0 -44 58 -64 99 -34 15 11 43 21 62
22 19 1 39 5 44 8 6 4 31 10 57 13 26 4 57 15 70 25 19 16 24 16 36 5 7 -8 28
-14 46 -14 50 0 112 -25 160 -65 45 -36 76 -45 76 -21 0 27 -31 87 -48 93 -9
4 -29 17 -44 29 -26 21 -119 54 -150 54 -7 0 -22 -6 -33 -12z M2739 4054 c-5
-15 -7 -30 -3 -33 4 -3 9 0 11 7 7 20 46 14 78 -13 l30 -25 -28 10 c-16 6 -32
8 -37 5 -5 -3 -11 -1 -14 4 -9 14 -64 7 -86 -12 -12 -10 -26 -15 -31 -11 -6 3
-19 -2 -29 -11 -10 -9 -24 -14 -29 -10 -6 3 -23 -3 -37 -14 -15 -12 -32 -21
-39 -21 -17 0 -55 -43 -55 -63 0 -14 10 -17 49 -17 53 0 81 17 81 50 0 29 33
18 53 -17 17 -32 49 -44 62 -23 4 6 15 6 32 -1 35 -13 53 -5 53 25 0 24 23 41
41 30 6 -3 7 -14 4 -24 -9 -29 33 -52 71 -41 16 6 47 13 69 18 103 21 19 141
-135 193 -80 27 -98 26 -111 -6z m-49 -104 c0 -5 -4 -10 -10 -10 -5 0 -10 5
-10 10 0 6 5 10 10 10 6 0 10 -4 10 -10z M1693 4031 c-55 -28 -133 -95 -139
-121 -3 -14 -8 -33 -10 -42 -4 -12 3 -19 20 -24 14 -3 26 -9 26 -13 0 -3 24
-6 54 -5 47 1 58 5 80 30 26 29 26 29 44 9 30 -35 145 -23 157 16 6 19 35 27
35 10 0 -37 104 -59 117 -25 7 19 -31 60 -63 68 -13 4 -24 11 -24 16 0 6 -6
10 -14 10 -8 0 -22 7 -30 16 -9 8 -20 13 -26 9 -5 -3 -19 4 -30 15 -11 11 -25
18 -29 15 -14 -8 -41 6 -41 21 0 19 -84 16 -127 -5z M2547 3553 c-11 -11 -8
-42 7 -66 8 -12 17 -38 21 -57 16 -79 99 -182 125 -153 13 14 21 63 10 63 -5
0 -10 14 -10 30 0 20 -14 48 -42 84 -24 30 -51 66 -61 80 -17 25 -37 33 -50
19z M1981 3502 c-41 -44 -115 -159 -117 -183 0 -8 -8 -26 -16 -40 -9 -13 -18
-35 -21 -49 -4 -15 -34 -49 -71 -80 -66 -56 -83 -90 -45 -90 11 0 27 -7 35
-15 14 -14 26 -18 90 -30 30 -6 119 -82 149 -126 15 -24 33 -39 45 -39 24 0
25 9 5 36 -8 10 -15 30 -15 43 0 14 -7 32 -16 42 -26 29 -11 69 26 69 16 0 32
5 35 11 4 6 19 7 35 4 15 -3 30 -2 33 2 6 10 96 9 149 -2 22 -4 51 -2 73 5 30
10 40 9 61 -5 25 -16 27 -16 48 4 18 17 25 18 35 8 6 -6 39 -13 74 -13 56 -1
64 -4 87 -33 32 -38 42 -38 102 -6 26 14 54 25 62 25 21 0 27 14 20 49 -7 34
-23 39 -57 17 -26 -17 -141 -5 -195 20 -26 12 -76 15 -265 13 -244 -2 -326
-11 -367 -41 -28 -20 -145 -35 -154 -19 -4 5 9 21 29 34 35 24 80 81 96 125 5
13 20 38 33 55 13 18 32 57 41 87 9 30 23 68 31 83 38 76 4 100 -55 39z M2460
3400 c-8 -5 -27 -10 -41 -10 -15 0 -32 -7 -40 -16 -7 -9 -21 -13 -33 -10 -11
3 -26 0 -33 -6 -9 -7 -21 -7 -42 2 -52 21 -71 -18 -28 -57 30 -28 58 -35 83
-20 94 54 107 59 131 48 36 -16 85 14 81 49 -3 28 -49 39 -78 20z M2057 3394
c-26 -27 7 -80 43 -69 33 10 24 69 -10 73 -14 2 -29 0 -33 -4z M2704 3256
c-13 -33 62 -128 95 -119 24 6 28 35 6 53 -8 7 -15 19 -15 27 0 35 -74 69 -86
39z M2563 2966 c-33 -28 -20 -56 27 -56 41 0 57 24 36 55 -20 31 -28 31 -63 1z
M1782 2958 c6 -18 28 -21 28 -4 0 9 -7 16 -16 16 -9 0 -14 -5 -12 -12z M2040
2960 c0 -5 7 -10 15 -10 8 0 15 5 15 10 0 6 -7 10 -15 10 -8 0 -15 -4 -15 -10z
M2154 2941 c-2 -3 -21 -4 -40 -3 -29 2 -35 0 -32 -15 6 -34 304 -39 315 -6 2
6 -10 14 -28 18 -38 9 -207 13 -215 6z M2440 2940 c0 -5 5 -10 10 -10 6 0 10
5 10 10 0 6 -4 10 -10 10 -5 0 -10 -4 -10 -10z M2520 2870 c0 -5 7 -10 15 -10
8 0 15 5 15 10 0 6 -7 10 -15 10 -8 0 -15 -4 -15 -10z M2330 2731 c-20 -13 -8
-23 32 -24 23 -2 33 2 33 13 0 18 -43 25 -65 11z M1790 2520 c0 -31 6 -36 29
-21 17 11 5 51 -15 51 -9 0 -14 -11 -14 -30z M1844 2475 c-20 -30 -9 -45 34
-45 20 0 23 4 20 32 -4 42 -31 48 -54 13z M597 2363 c-4 -3 -7 -17 -7 -30 0
-35 34 -26 38 10 3 26 -14 37 -31 20z M2190 2310 c0 -5 5 -10 10 -10 6 0 10 5
10 10 0 6 -4 10 -10 10 -5 0 -10 -4 -10 -10z M2225 2310 c-10 -16 14 -40 39
-40 11 0 41 -12 65 -25 41 -24 45 -24 62 -9 21 19 25 34 8 34 -6 0 -33 11 -61
25 -52 26 -102 33 -113 15z M2470 2270 c0 -33 5 -35 44 -20 41 15 35 50 -9 50
-32 0 -35 -2 -35 -30z M3030 2210 c0 -5 5 -10 10 -10 6 0 10 5 10 10 0 6 -4
10 -10 10 -5 0 -10 -4 -10 -10z M4320 2105 c0 -8 5 -15 10 -15 6 0 10 7 10 15
0 8 -4 15 -10 15 -5 0 -10 -7 -10 -15z M2990 2080 c0 -5 5 -10 10 -10 6 0 10
5 10 10 0 6 -4 10 -10 10 -5 0 -10 -4 -10 -10z M2980 2000 c0 -5 7 -10 15 -10
8 0 15 5 15 10 0 6 -7 10 -15 10 -8 0 -15 -4 -15 -10z M2980 1910 c0 -5 7 -10
15 -10 8 0 15 5 15 10 0 6 -7 10 -15 10 -8 0 -15 -4 -15 -10z M1620 1740 c0
-5 7 -10 15 -10 8 0 15 5 15 10 0 6 -7 10 -15 10 -8 0 -15 -4 -15 -10z M860
1660 c0 -5 7 -10 15 -10 8 0 15 5 15 10 0 6 -7 10 -15 10 -8 0 -15 -4 -15 -10z
M3582 1488 c2 -15 11 -24 26 -26 20 -3 23 0 20 20 -2 15 -11 24 -26 26 -20 3
-23 0 -20 -20z M3640 1464 c0 -18 24 -44 40 -44 29 0 25 29 -6 40 -29 12 -34
12 -34 4z M1832 1444 c2 -11 11 -20 22 -22 13 -3 17 1 14 14 -2 11 -11 20 -22
22 -13 3 -17 -1 -14 -14z M2904 1345 c-55 -46 -105 -85 -112 -85 -14 0 -102
-78 -102 -91 0 -29 110 21 135 60 3 6 17 11 29 11 13 0 29 7 36 15 7 8 23 15
35 15 44 0 130 117 110 149 -13 22 -35 9 -131 -74z M2840 1374 c0 -9 5 -14 12
-12 18 6 21 28 4 28 -9 0 -16 -7 -16 -16z M1900 1360 c0 -5 5 -10 10 -10 6 0
10 5 10 10 0 6 -4 10 -10 10 -5 0 -10 -4 -10 -10z M4634 1274 c-9 -21 -22 -43
-30 -51 -8 -8 -14 -24 -14 -36 0 -12 -15 -60 -34 -107 -43 -108 -75 -224 -85
-307 -4 -35 -13 -68 -19 -72 -7 -4 -19 -34 -27 -67 -9 -32 -25 -76 -35 -97
-11 -21 -20 -52 -20 -70 0 -18 -7 -51 -15 -73 -14 -41 -4 -114 15 -114 20 0
32 32 26 66 -5 26 -2 43 10 61 12 20 15 39 11 79 -4 43 -2 55 13 69 18 17 19
15 26 -34 8 -63 30 -69 37 -8 2 23 11 71 20 107 9 36 23 101 32 145 30 144 46
209 72 280 13 39 29 86 35 105 6 19 19 52 29 72 28 55 25 88 -7 88 -19 0 -28
-8 -40 -36z M3291 1250 c-38 -28 -42 -35 -37 -60 8 -45 -78 -114 -99 -79 -5 7
-25 8 -59 4 -45 -7 -57 -14 -102 -60 -28 -30 -67 -60 -87 -69 -21 -8 -37 -20
-37 -26 0 -6 -13 -16 -30 -21 -39 -14 -42 -49 -5 -49 15 0 39 7 54 15 16 8 31
12 34 8 4 -3 26 12 50 33 51 45 130 88 135 74 5 -13 32 -13 32 0 0 17 25 11
43 -10 18 -21 23 -69 8 -85 -15 -18 2 -119 22 -123 21 -4 47 51 47 100 0 44
16 100 32 109 7 4 9 12 4 16 -5 4 -11 2 -13 -4 -6 -18 -33 -16 -33 2 0 21 31
55 51 55 10 0 20 6 23 13 3 6 3 0 0 -15 -4 -16 0 -36 9 -49 9 -12 13 -28 10
-35 -3 -8 -1 -14 5 -14 5 0 12 -9 15 -20 7 -28 77 -29 84 -1 6 23 33 36 43 21
10 -17 90 27 90 50 0 23 13 26 29 6 9 -10 8 -15 -4 -20 -19 -7 -20 -46 -1 -46
8 0 28 -8 45 -17 16 -10 32 -15 36 -12 10 11 -7 40 -20 35 -11 -4 -24 21 -25
47 0 12 36 8 66 -8 58 -30 68 -16 30 43 -15 24 -44 48 -82 68 -33 17 -102 56
-155 87 -126 73 -151 78 -208 37z M2861 1193 c-17 -25 -31 -52 -31 -58 0 -7
-9 -20 -20 -30 -50 -45 -93 -155 -61 -155 19 0 131 166 131 196 0 11 9 29 20
39 11 10 20 26 20 37 0 32 -27 19 -59 -29z M640 1202 c0 -27 15 -52 32 -52 13
0 9 55 -4 68 -19 19 -28 14 -28 -16z M3147 1202 c-19 -21 -23 -52 -6 -52 25 0
49 22 49 45 0 30 -20 33 -43 7z M3901 1177 c-35 -43 -9 -201 32 -195 18 3 20
12 23 88 3 107 -19 150 -55 107z M1844 1166 c-14 -11 -16 -18 -8 -26 18 -18
49 -7 52 18 4 26 -15 29 -44 8z M2612 1149 c-56 -16 -52 -58 5 -59 15 0 28 10
38 30 23 45 20 47 -43 29z M696 1101 c-7 -11 8 -63 27 -92 9 -13 19 -44 22
-69 7 -46 52 -188 66 -204 9 -10 49 29 49 48 0 7 -11 34 -25 59 -14 25 -28 69
-32 99 -3 29 -12 57 -19 61 -8 4 -14 17 -14 27 0 10 -5 22 -11 25 -5 4 -14 18
-19 31 -9 24 -34 32 -44 15z M2473 1098 c-43 -21 -22 -48 36 -48 31 0 51 16
51 42 0 21 -49 24 -87 6z M1204 972 c-127 -122 -132 -129 -133 -170 -1 -24 5
-52 14 -64 8 -13 15 -33 15 -45 0 -13 4 -23 9 -23 19 0 71 23 71 31 0 6 15 16
34 24 19 8 48 33 66 55 43 54 66 62 120 44 99 -34 140 1 67 57 -70 53 -101
103 -93 149 16 103 -15 93 -170 -58z M2255 1070 c-12 -19 4 -25 65 -25 57 0
80 8 66 22 -13 13 -123 16 -131 3z M1497 1063 c-9 -8 -9 -66 -1 -87 20 -52 67
18 49 73 -6 20 -34 28 -48 14z M1927 993 c-17 -16 -3 -43 59 -113 62 -71 124
-173 124 -203 0 -8 7 -20 15 -27 17 -14 85 -152 85 -173 0 -7 4 -17 8 -23 5
-5 23 -45 40 -89 17 -44 40 -99 51 -122 12 -23 21 -48 21 -55 0 -7 7 -22 15
-32 8 -11 15 -32 15 -47 0 -40 10 -59 30 -59 21 0 45 90 61 225 11 100 9 106
-31 83 -31 -18 -47 -13 -29 9 9 10 8 18 -5 31 -9 10 -16 22 -16 26 0 3 -18 23
-40 43 -22 21 -40 43 -40 50 0 7 -4 13 -9 13 -5 0 -17 25 -26 55 -10 30 -24
55 -31 55 -16 0 -25 14 -29 47 -1 15 -16 38 -34 52 -17 14 -31 34 -31 43 0 10
-8 25 -19 35 -10 10 -21 31 -25 46 -4 16 -16 31 -30 37 -14 5 -27 18 -31 29
-11 34 -82 81 -98 64z M70 982 c0 -35 76 -216 137 -327 23 -41 83 -172 83
-181 0 -10 44 -54 54 -54 9 0 7 28 -4 48 -5 9 -25 60 -45 112 -20 52 -43 109
-51 127 -7 17 -14 35 -14 40 0 19 -68 143 -105 192 -37 48 -55 62 -55 43z
M4607 617 c-26 -51 -47 -100 -47 -109 0 -8 -9 -27 -20 -41 -24 -30 -26 -47 -5
-47 21 0 42 36 85 147 48 126 53 143 42 143 -4 0 -29 -42 -55 -93z M2347 673
c-6 -33 -3 -38 18 -30 19 8 20 57 1 57 -7 0 -16 -12 -19 -27z M1657 563 c-13
-12 -7 -33 8 -33 8 0 15 9 15 20 0 20 -11 26 -23 13z M1844 515 c-8 -20 2 -32
39 -51 18 -9 36 -23 40 -30 11 -18 46 -18 53 0 11 28 -55 96 -93 96 -20 0 -36
-6 -39 -15z M2452 518 c-15 -15 -15 -43 0 -85 15 -41 24 -42 32 -2 16 81 1
120 -32 87z M4497 413 c-13 -12 -7 -53 7 -53 14 0 29 37 20 52 -6 10 -18 10
-27 1z M335 370 c-7 -12 2 -30 16 -30 5 0 9 9 9 20 0 21 -15 27 -25 10z M4456
328 c-2 -7 -11 -36 -20 -65 -25 -75 -3 -132 24 -60 6 17 16 40 21 49 15 30 11
88 -6 88 -9 0 -17 -6 -19 -12z M4332 258 c-21 -21 -15 -88 8 -88 21 0 34 32
28 71 -4 27 -19 34 -36 17z M4317 126 c-9 -22 4 -87 16 -83 22 7 31 35 22 63
-12 32 -30 41 -38 20z M2617 23 c-13 -12 -7 -23 13 -23 13 0 18 5 14 15 -7 16
-17 19 -27 8z"/>
</g>
</svg>
</g>
<rect x="66.0" y="0" width="44" height="13" fill="#d7deec" fill-opacity="0.85" transform="rotate(2 88.0 6)"/>
</svg>
